<svg width="435" height="311" viewBox="0 0 435 311" fill="none" xmlns="http://www.w3.org/2000/svg">
<g clip-path="url(#clip0_109_55)">
<path opacity="0.1" d="M435 204.439C434.991 219.17 431.788 233.724 425.612 247.097C419.436 260.47 410.433 272.342 399.226 281.896C388.019 291.449 374.873 298.456 360.697 302.433C346.52 306.409 331.65 307.261 317.113 304.929H155.859C149.631 305.784 143.351 306.213 137.065 306.213C132.552 306.213 128.093 305.998 123.689 305.568C89.801 302.275 58.3549 286.469 35.4858 261.231C12.6167 235.994 -0.034721 203.136 1.02848e-05 169.07C1.02848e-05 93.3259 61.3678 31.9268 137.065 31.9268C198.03 31.9268 249.689 71.7553 267.493 126.825C285.857 111.193 309.191 102.626 333.303 102.664C389.461 102.664 435 148.229 435 204.439Z" fill="#905ECE"/>
<path opacity="0.1" d="M395.927 284.624C384.89 293.246 372.195 299.5 358.635 302.993C345.074 306.487 330.939 307.146 317.113 304.929H155.859C149.631 305.784 143.351 306.213 137.065 306.213C132.552 306.213 128.093 305.998 123.689 305.567C96.983 302.947 71.6328 292.544 50.7787 275.648C29.9246 258.751 14.483 236.105 6.36725 210.513C19.4966 182.442 53.2274 162.467 92.7749 162.467C131.313 162.467 164.345 181.439 178.131 208.386C184.92 207.15 191.806 206.531 198.706 206.536C238.648 206.536 272.656 226.925 285.497 255.417C296.134 252.191 307.191 250.564 318.305 250.589C350.882 250.604 379.513 264.155 395.927 284.624Z" fill="#905ECE"/>
<path d="M232.178 215.057C232.025 217.084 231.421 219.052 230.409 220.816C231.614 222.972 232.247 225.402 232.247 227.873C232.247 230.343 231.614 232.773 230.409 234.929C231.286 236.45 231.857 238.128 232.091 239.868L227.011 248.606L232.163 243.503C231.983 245.454 231.385 247.344 230.409 249.042C231.614 251.2 232.247 253.63 232.247 256.101C232.247 258.572 231.614 261.002 230.409 263.159C231.614 265.316 232.247 267.745 232.247 270.216C232.247 272.687 231.614 275.116 230.409 277.273C231.635 279.42 232.269 281.854 232.247 284.327C232.247 290.706 228.302 295.872 223.431 295.872C223.294 295.872 223.161 295.872 223.024 295.872C220.323 295.709 217.615 295.709 214.914 295.872C214.781 295.872 214.641 295.872 214.508 295.872C214.375 295.872 214.239 295.872 214.102 295.872C211.401 295.709 208.693 295.709 205.992 295.872C205.859 295.872 205.719 295.872 205.586 295.872C200.718 295.872 196.769 290.706 196.769 284.327C196.745 281.854 197.38 279.418 198.611 277.273C197.38 275.132 196.74 272.703 196.758 270.233C196.759 269.317 196.844 268.402 197.012 267.502L204.071 271.886L197.7 265.067C197.944 264.408 198.245 263.773 198.599 263.167C197.392 261.011 196.757 258.58 196.757 256.109C196.757 253.637 197.392 251.206 198.599 249.05C197.392 246.894 196.758 244.464 196.758 241.993C196.758 239.522 197.392 237.093 198.599 234.937C197.497 233.021 196.875 230.866 196.785 228.657L208.877 236.164L197.328 223.81C197.626 222.765 198.053 221.762 198.599 220.824C197.773 219.401 197.217 217.837 196.959 216.212C196.824 215.404 196.757 214.587 196.758 213.769C196.733 211.294 197.369 208.857 198.599 206.71C197.369 204.565 196.733 202.129 196.758 199.656C196.758 193.277 200.707 188.107 205.574 188.107C207.197 188.124 208.767 188.683 210.035 189.695C211.296 188.667 212.871 188.106 214.497 188.106C216.122 188.106 217.698 188.667 218.958 189.695C220.226 188.682 221.797 188.123 223.419 188.107C228.291 188.107 232.235 193.277 232.235 199.656C232.26 202.125 231.63 204.557 230.409 206.703C231.635 208.851 232.269 211.287 232.247 213.761C232.235 214.198 232.216 214.631 232.178 215.057Z" fill="#3F3D56"/>
<path opacity="0.1" d="M230.409 206.703C231.635 208.851 232.269 211.287 232.247 213.761C232.247 214.198 232.247 214.631 232.19 215.057C226.317 213.023 220.972 209.705 216.543 205.343C211.128 210.677 204.361 214.433 196.971 216.204C196.836 215.397 196.768 214.58 196.769 213.761C196.745 211.286 197.38 208.85 198.611 206.703C197.38 204.557 196.745 202.122 196.769 199.648C196.769 193.27 200.718 188.099 205.586 188.099C207.205 188.121 208.771 188.683 210.035 189.695C211.296 188.667 212.871 188.106 214.497 188.106C216.122 188.106 217.698 188.667 218.958 189.695C220.226 188.682 221.797 188.123 223.419 188.107C228.291 188.107 232.235 193.277 232.235 199.656C232.26 202.125 231.63 204.557 230.409 206.703Z" fill="black"/>
<path d="M315.328 158.079L336.397 147.948C332.091 140.994 325.851 135.449 318.442 131.992C318.56 130.704 318.624 129.401 318.624 128.083C318.633 123.049 317.732 118.056 315.966 113.343L289.541 103.838L289.635 103.644L312.006 105.486C307.56 98.5645 301.183 93.099 293.664 89.7661C293.83 88.2433 293.914 86.7126 293.915 85.1807C293.922 79.6215 292.819 74.1168 290.672 68.9895L278.143 81.4007L288.231 64.0736C286.554 61.2062 284.544 58.5474 282.243 56.1527L269.22 69.0426L278.659 52.8286C274.268 49.2051 269.182 46.5186 263.715 44.9343C262.17 39.109 259.39 33.6848 255.563 29.0305C251.736 24.3763 246.953 20.601 241.538 17.9615L223.237 36.0751L235.212 15.4998C229.87 13.9077 224.264 13.3983 218.722 14.0014C213.181 14.6045 207.815 16.308 202.94 19.012C198.064 21.716 193.777 25.3663 190.33 29.749C186.882 34.1316 184.343 39.1586 182.862 44.5354C175.244 46.4439 168.317 50.4608 162.875 56.1261L177.558 70.095L159.39 60.2442C154.039 67.4531 151.156 76.1973 151.17 85.1769C151.17 85.7696 151.17 86.3584 151.212 86.9473C141.507 88.7983 132.771 94.0268 126.551 101.706L138.439 113.016L124.011 105.19C119.556 111.996 117.188 119.958 117.2 128.094C117.2 128.58 117.2 129.063 117.23 129.545C110.614 131.336 104.541 134.728 99.5446 139.423L115.449 154.55L95.5352 143.753C89.557 151.179 86.3033 160.431 86.3166 169.966C86.3166 170.559 86.3166 171.148 86.3583 171.737L106.185 190.595L87.6492 180.577C89.5101 187.703 93.2156 194.213 98.3924 199.449C103.569 204.686 110.034 208.464 117.136 210.403C124.237 212.343 131.724 212.375 138.842 210.496C145.96 208.617 152.456 204.893 157.678 199.701C165.491 207.473 176.051 211.849 187.068 211.881C198.086 211.912 208.671 207.596 216.528 199.868C224.041 207.25 234.058 211.528 244.583 211.848C255.107 212.169 265.366 208.508 273.313 201.597C280.46 207.808 289.499 211.413 298.956 211.824C308.413 212.236 317.731 209.428 325.389 203.861C333.047 198.293 338.594 190.293 341.125 181.166C343.655 172.04 343.021 162.324 339.324 153.604L315.328 158.079Z" fill="#905ECE"/>
<path opacity="0.1" d="M322.22 172.66C313.358 177.158 302.738 173.621 293.383 170.27C281.142 165.883 268.632 161.863 255.684 160.632C242.737 159.402 229.198 161.13 217.933 167.63C211.205 171.513 205.403 177.006 198.258 180.064C178.116 188.692 154.45 175.665 133.234 181.132C120.75 184.346 111.273 193.258 102.024 202.68C110.05 209.107 120.159 212.354 130.424 211.801C140.689 211.248 150.392 206.935 157.681 199.682C165.494 207.454 176.055 211.83 187.072 211.862C198.089 211.893 208.675 207.577 216.532 199.849C224.042 207.233 234.057 211.513 244.581 211.837C255.105 212.161 265.364 208.505 273.313 201.597C279.376 206.866 286.825 210.279 294.773 211.43C302.72 212.58 310.831 211.42 318.137 208.086C325.444 204.753 331.638 199.387 335.982 192.629C340.326 185.871 342.635 178.005 342.635 169.97C342.634 167.373 342.394 164.781 341.918 162.228C338.055 162.876 334.368 164.317 331.089 166.46C328.086 168.451 325.443 171.023 322.22 172.66Z" fill="black"/>
<path opacity="0.1" d="M186.514 45.2725C195.247 47.2935 203.816 50.6252 210.746 56.2895C217.675 61.9538 222.816 70.1976 223.431 79.1442" fill="black"/>
<path opacity="0.1" d="M242.179 120.933C245.448 112.594 249.985 104.598 256.607 98.5457C263.229 92.494 272.106 88.619 281.028 89.3028" fill="black"/>
<path opacity="0.1" d="M128.996 128.835C137.915 129.564 146.891 131.608 154.572 136.209C162.253 140.809 168.536 148.198 170.45 156.951" fill="black"/>
<path d="M177.584 76.2342C180.996 76.2342 183.762 73.4669 183.762 70.0533C183.762 66.6396 180.996 63.8723 177.584 63.8723C174.173 63.8723 171.407 66.6396 171.407 70.0533C171.407 73.4669 174.173 76.2342 177.584 76.2342Z" fill="#FF6F61"/>
<path d="M183.762 49.7933C187.173 49.7933 189.939 47.026 189.939 43.6123C189.939 40.1987 187.173 37.4314 183.762 37.4314C180.35 37.4314 177.584 40.1987 177.584 43.6123C177.584 47.026 180.35 49.7933 183.762 49.7933Z" fill="#FF6F61"/>
<path d="M151.158 91.3389C154.57 91.3389 157.336 88.5716 157.336 85.158C157.336 81.7444 154.57 78.9771 151.158 78.9771C147.747 78.9771 144.981 81.7444 144.981 85.158C144.981 88.5716 147.747 91.3389 151.158 91.3389Z" fill="#FF6F61"/>
<path d="M263.719 49.7933C267.13 49.7933 269.896 47.026 269.896 43.6123C269.896 40.1987 267.13 37.4314 263.719 37.4314C260.307 37.4314 257.541 40.1987 257.541 43.6123C257.541 47.026 260.307 49.7933 263.719 49.7933Z" fill="#FF6F61"/>
<path d="M290.482 76.2342C293.894 76.2342 296.66 73.4669 296.66 70.0533C296.66 66.6396 293.894 63.8723 290.482 63.8723C287.071 63.8723 284.305 66.6396 284.305 70.0533C284.305 73.4669 287.071 76.2342 290.482 76.2342Z" fill="#FF6F61"/>
<path d="M315.879 119.497C319.291 119.497 322.056 116.73 322.056 113.316C322.056 109.903 319.291 107.135 315.879 107.135C312.467 107.135 309.702 109.903 309.702 113.316C309.702 116.73 312.467 119.497 315.879 119.497Z" fill="#FF6F61"/>
<path d="M339.214 163.102C342.626 163.102 345.392 160.334 345.392 156.921C345.392 153.507 342.626 150.74 339.214 150.74C335.803 150.74 333.037 153.507 333.037 156.921C333.037 160.334 335.803 163.102 339.214 163.102Z" fill="#FF6F61"/>
<path d="M273.324 207.74C276.736 207.74 279.502 204.973 279.502 201.559C279.502 198.145 276.736 195.378 273.324 195.378C269.913 195.378 267.147 198.145 267.147 201.559C267.147 204.973 269.913 207.74 273.324 207.74Z" fill="#FF6F61"/>
<path d="M157.681 207.74C161.093 207.74 163.859 204.973 163.859 201.559C163.859 198.145 161.093 195.378 157.681 195.378C154.27 195.378 151.504 198.145 151.504 201.559C151.504 204.973 154.27 207.74 157.681 207.74Z" fill="#FF6F61"/>
<path d="M221.164 83.7867C224.576 83.7867 227.341 81.0194 227.341 77.6058C227.341 74.1921 224.576 71.4248 221.164 71.4248C217.752 71.4248 214.987 74.1921 214.987 77.6058C214.987 81.0194 217.752 83.7867 221.164 83.7867Z" fill="#FF6F61"/>
<path d="M242.1 125.678C245.511 125.678 248.277 122.911 248.277 119.497C248.277 116.083 245.511 113.316 242.1 113.316C238.688 113.316 235.922 116.083 235.922 119.497C235.922 122.911 238.688 125.678 242.1 125.678Z" fill="#FF6F61"/>
<path d="M326.859 208.769C330.271 208.769 333.037 206.002 333.037 202.588C333.037 199.175 330.271 196.407 326.859 196.407C323.448 196.407 320.682 199.175 320.682 202.588C320.682 206.002 323.448 208.769 326.859 208.769Z" fill="#FF6F61"/>
<path d="M170.032 161.043C173.444 161.043 176.21 158.276 176.21 154.862C176.21 151.448 173.444 148.681 170.032 148.681C166.621 148.681 163.855 151.448 163.855 154.862C163.855 158.276 166.621 161.043 170.032 161.043Z" fill="#FF6F61"/>
<path d="M223.567 41.2113C226.979 41.2113 229.745 38.444 229.745 35.0303C229.745 31.6167 226.979 28.8494 223.567 28.8494C220.156 28.8494 217.39 31.6167 217.39 35.0303C217.39 38.444 220.156 41.2113 223.567 41.2113Z" fill="#FF6F61"/>
<path d="M117.185 134.948C120.596 134.948 123.362 132.18 123.362 128.767C123.362 125.353 120.596 122.586 117.185 122.586C113.773 122.586 111.007 125.353 111.007 128.767C111.007 132.18 113.773 134.948 117.185 134.948Z" fill="#FF6F61"/>
<path d="M86.3014 189.197C89.7131 189.197 92.4788 186.43 92.4788 183.016C92.4788 179.602 89.7131 176.835 86.3014 176.835C82.8897 176.835 80.124 179.602 80.124 183.016C80.124 186.43 82.8897 189.197 86.3014 189.197Z" fill="#FF6F61"/>
<path d="M95.9111 151.773C99.3228 151.773 102.089 149.006 102.089 145.592C102.089 142.179 99.3228 139.411 95.9111 139.411C92.4994 139.411 89.7337 142.179 89.7337 145.592C89.7337 149.006 92.4994 151.773 95.9111 151.773Z" fill="#FF6F61"/>
<path d="M309.383 135.768C308.426 135.631 307.306 135.141 306.345 135.156C305.385 135.172 304.667 138.074 303.714 138.222C302.761 138.37 301.535 136.934 300.604 137.204C299.674 137.474 299.257 139.031 298.364 139.4C297.472 139.768 296.405 139.582 295.555 140.034C294.704 140.486 294.366 141.66 293.565 142.184C292.764 142.709 291.287 142.245 290.528 142.834C289.768 143.423 289.495 144.574 288.766 145.205C288.037 145.835 286.218 145.269 285.52 145.934C284.821 146.599 283.739 146.922 283.063 147.609C282.387 148.297 282.604 149.862 281.924 150.561C281.245 151.26 280.664 152.024 280.026 152.727" fill="#EDEDF4"/>
<path d="M182.023 127.319C181.552 126.472 181.263 125.264 180.686 124.508C180.109 123.752 177.269 125.009 176.563 124.341C175.857 123.672 176.324 121.773 175.549 121.195C174.775 120.618 173.248 121.267 172.417 120.781C171.585 120.295 171.103 119.303 170.23 118.882C169.357 118.46 168.21 118.946 167.306 118.627C166.403 118.308 165.909 116.811 164.983 116.557C164.056 116.302 162.967 116.811 162.025 116.614C161.083 116.416 160.449 114.547 159.496 114.395C158.543 114.243 157.636 113.544 156.679 113.419C155.722 113.293 154.602 114.467 153.642 114.365C152.681 114.262 151.713 114.243 150.76 114.144" fill="#EDEDF4"/>
<path d="M204.264 155.124C204.8 154.258 206.231 153.506 207.211 153.224C208.19 152.943 209.42 153.361 210.389 153.445C211.357 153.528 212.314 154.281 213.301 154.375C214.288 154.47 215.621 155.272 216.593 155.018C217.548 154.713 218.477 154.331 219.372 153.878C220.287 153.464 220.686 151.849 221.65 151.579C222.614 151.31 223.928 152.871 224.9 152.719C225.872 152.567 226.571 150.493 227.558 150.387C228.545 150.28 229.581 150.463 230.595 150.387C231.328 150.326 231.594 151.8 232.285 152.043C233.245 152.381 235.413 151.002 236.055 151.834C236.697 152.666 236.435 153.992 237.384 154.322" fill="#EDEDF4"/>
<path d="M221.164 73.989C221.987 73.9497 222.807 74.1032 223.56 74.4373C224.368 74.8172 225.458 74.783 226.05 75.4517C226.643 76.1203 226.745 77.2144 226.996 78.0768C227.151 77.5335 227.858 76.8307 227.858 76.2342C227.858 75.3947 227.151 74.6083 226.848 73.8789C226.562 73.1166 226.128 72.4182 225.572 71.8236C225.002 71.2538 224.516 70.2698 223.765 69.9583C223.013 69.6468 222.003 70.0875 221.164 70.0875C220.355 70.0764 219.553 70.2262 218.802 70.5282C218.043 70.8397 217.029 70.9575 216.46 71.5235C215.89 72.0896 215.818 73.1305 215.503 73.8865C215.188 74.6425 215.59 75.4061 215.59 76.2342C215.59 76.8307 214.831 77.0852 214.983 77.6285C215.207 76.789 215.615 76.0102 216.179 75.3491C216.785 74.6141 217.533 74.0082 218.377 73.5674C219.163 73.2217 220.245 73.989 221.164 73.989Z" fill="#EDEDF4"/>
<path d="M273.313 197.255C274.136 197.215 274.956 197.369 275.709 197.703C276.518 198.083 277.607 198.049 278.199 198.717C278.792 199.386 278.894 200.48 279.145 201.346C279.301 200.799 280.007 200.096 280.007 199.5C280.007 198.66 279.301 197.874 278.997 197.144C278.711 196.382 278.277 195.684 277.721 195.089C277.152 194.523 276.666 193.539 275.914 193.224C275.162 192.909 274.152 193.353 273.313 193.353C272.504 193.342 271.702 193.492 270.951 193.794C270.192 194.105 269.178 194.223 268.609 194.793C268.039 195.363 267.967 196.4 267.652 197.152C267.337 197.904 267.739 198.672 267.739 199.5C267.739 200.096 266.98 200.351 267.132 200.894C267.357 200.055 267.765 199.276 268.328 198.615C268.936 197.88 269.685 197.274 270.53 196.833C271.323 196.491 272.406 197.255 273.313 197.255Z" fill="#EDEDF4"/>
<path d="M326.848 197.255C327.669 197.215 328.489 197.369 329.24 197.703C330.052 198.083 331.138 198.049 331.734 198.717C332.331 199.386 332.429 200.48 332.676 201.346C332.836 200.799 333.538 200.096 333.538 199.5C333.538 198.66 332.832 197.874 332.532 197.144C332.243 196.383 331.808 195.685 331.252 195.089C330.687 194.523 330.201 193.539 329.445 193.224C328.689 192.909 327.687 193.353 326.848 193.353C326.039 193.341 325.236 193.491 324.486 193.794C323.727 194.105 322.713 194.223 322.144 194.793C321.574 195.363 321.502 196.4 321.187 197.152C320.872 197.904 321.274 198.672 321.274 199.5C321.274 200.096 320.515 200.351 320.667 200.894C320.892 200.056 321.299 199.277 321.859 198.615C322.469 197.881 323.217 197.276 324.061 196.833C324.855 196.491 325.941 197.255 326.848 197.255Z" fill="#EDEDF4"/>
<path d="M167.28 150.896C167.963 150.441 168.743 150.151 169.558 150.049C170.446 149.954 171.376 149.372 172.216 149.65C173.055 149.927 173.734 150.789 174.376 151.412C174.232 150.862 174.467 149.893 174.159 149.391C173.73 148.673 172.724 148.354 172.094 147.872C171.456 147.366 170.724 146.99 169.941 146.766C169.163 146.573 168.244 145.984 167.435 146.105C166.627 146.227 165.989 147.108 165.271 147.541C164.57 147.946 163.957 148.487 163.468 149.133C162.982 149.79 162.177 150.417 161.979 151.196C161.782 151.975 162.245 152.902 162.359 153.711C162.473 154.52 163.198 154.968 163.627 155.686C163.935 156.195 163.426 156.826 163.84 157.206C163.604 156.375 163.557 155.501 163.703 154.649C163.844 153.706 164.175 152.802 164.675 151.99C165.176 151.283 166.49 151.371 167.28 150.896Z" fill="#EDEDF4"/>
<path d="M154.579 197.593C155.264 197.139 156.043 196.849 156.857 196.746C157.742 196.651 158.676 196.069 159.515 196.366C160.354 196.662 161.015 197.505 161.676 198.128C161.531 197.578 161.767 196.609 161.459 196.107C161.03 195.389 160.024 195.07 159.39 194.588C158.753 194.082 158.023 193.706 157.241 193.482C156.459 193.289 155.54 192.7 154.731 192.821C153.922 192.943 153.288 193.824 152.567 194.257C151.868 194.664 151.256 195.205 150.767 195.849C150.281 196.506 149.476 197.133 149.279 197.912C149.082 198.691 149.545 199.618 149.659 200.427C149.773 201.236 150.498 201.684 150.927 202.402C151.234 202.911 150.722 203.523 151.139 203.922C150.903 203.091 150.857 202.217 151.003 201.365C151.144 200.422 151.475 199.518 151.975 198.706C152.48 197.98 153.793 198.053 154.579 197.593Z" fill="#EDEDF4"/>
<path d="M116.148 125.492C116.832 125.037 117.612 124.747 118.426 124.645C119.315 124.55 120.249 123.969 121.084 124.246C121.919 124.523 122.603 125.386 123.244 126.005C123.1 125.458 123.335 124.485 123.028 123.988C122.599 123.27 121.593 122.95 120.962 122.468C120.324 121.963 119.593 121.589 118.81 121.366C118.05 121.169 117.112 120.584 116.304 120.705C115.495 120.827 114.857 121.708 114.14 122.141C113.438 122.546 112.825 123.087 112.336 123.733C111.85 124.39 111.045 125.013 110.848 125.796C110.65 126.578 111.114 127.502 111.227 128.311C111.341 129.12 112.067 129.564 112.496 130.286C112.803 130.795 112.294 131.403 112.708 131.806C112.472 130.974 112.426 130.101 112.571 129.249C112.713 128.306 113.043 127.402 113.543 126.59C114.045 125.872 115.366 125.959 116.148 125.492Z" fill="#EDEDF4"/>
<path d="M94.8632 143.347C95.547 142.892 96.3267 142.602 97.1413 142.5C98.0297 142.401 98.9637 141.824 99.799 142.101C100.634 142.378 101.318 143.241 101.959 143.86C101.815 143.313 102.051 142.34 101.743 141.843C101.314 141.125 100.312 140.806 99.6775 140.323C99.0401 139.819 98.31 139.444 97.5285 139.221C96.7464 139.024 95.8276 138.439 95.0189 138.557C94.2101 138.674 93.5723 139.563 92.8547 139.993C92.1555 140.401 91.5439 140.943 91.055 141.588C90.5652 142.245 89.7603 142.868 89.5666 143.651C89.373 144.434 89.8324 145.357 89.9463 146.166C90.0602 146.975 90.7854 147.42 91.2182 148.138C91.522 148.65 91.0132 149.258 91.4271 149.657C91.1949 148.825 91.1482 147.952 91.2904 147.1C91.4363 146.159 91.7666 145.255 92.2624 144.441C92.7711 143.727 94.081 143.814 94.8632 143.347Z" fill="#EDEDF4"/>
<path d="M85.2611 179.738C85.9454 179.284 86.7249 178.994 87.5392 178.89C88.4276 178.795 89.3616 178.214 90.1969 178.511C91.0322 178.807 91.6967 179.65 92.3573 180.273C92.2092 179.722 92.4446 178.754 92.1409 178.252C91.708 177.534 90.7057 177.215 90.0716 176.733C89.4334 176.229 88.7036 175.853 87.9226 175.627C87.1405 175.433 86.2217 174.867 85.4129 174.966C84.6042 175.065 83.9664 175.973 83.2488 176.402C82.5497 176.809 81.9381 177.35 81.4491 177.994C80.9631 178.651 80.1544 179.278 79.9607 180.057C79.7671 180.835 80.2265 181.766 80.3404 182.572C80.4543 183.377 81.1833 183.829 81.6123 184.547C81.9199 185.06 81.4073 185.668 81.825 186.067C81.5896 185.234 81.5416 184.36 81.6845 183.506C81.8289 182.563 82.1607 181.659 82.6603 180.847C83.1614 180.125 84.4751 180.197 85.2611 179.738Z" fill="#EDEDF4"/>
<path d="M149.776 82.2252C150.461 81.7717 151.24 81.4818 152.054 81.3781C152.943 81.2793 153.877 80.7018 154.712 80.9792C155.548 81.2565 156.212 82.1188 156.873 82.7381C156.725 82.191 156.96 81.2185 156.656 80.7208C156.223 80.0028 155.221 79.6837 154.587 79.2012C153.949 78.697 153.219 78.3227 152.438 78.0995C151.656 77.902 150.737 77.3169 149.928 77.4347C149.12 77.5525 148.482 78.4414 147.764 78.8707C147.065 79.2787 146.453 79.8209 145.964 80.4663C145.478 81.1197 144.67 81.7466 144.476 82.5291C144.282 83.3117 144.742 84.2349 144.856 85.0441C144.97 85.8533 145.699 86.2977 146.128 87.0157C146.435 87.5286 145.923 88.1364 146.34 88.5353C146.105 87.704 146.057 86.8308 146.2 85.9786C146.345 85.036 146.676 84.1319 147.176 83.3193C147.677 82.6089 148.987 82.6963 149.776 82.2252Z" fill="#EDEDF4"/>
<path d="M176.198 67.1167C176.883 66.663 177.662 66.3731 178.476 66.2695C179.361 66.1745 180.295 65.5933 181.134 65.8706C181.973 66.1479 182.634 67.0103 183.295 67.6295C183.15 67.0825 183.386 66.1099 183.078 65.6123C182.649 64.8943 181.643 64.5751 181.009 64.0927C180.372 63.587 179.642 63.2125 178.86 62.991C178.082 62.7934 177.159 62.2084 176.354 62.3299C175.549 62.4515 174.907 63.3329 174.186 63.766C173.487 64.1725 172.875 64.7135 172.386 65.3577C171.9 66.015 171.095 66.638 170.898 67.4206C170.701 68.2032 171.164 69.1263 171.278 69.9355C171.392 70.7447 172.117 71.1892 172.546 71.911C172.853 72.42 172.345 73.0279 172.758 73.4306C172.522 72.5993 172.476 71.7256 172.622 70.8738C172.763 69.9309 173.094 69.0263 173.594 68.2146C174.099 67.5004 175.412 67.5877 176.198 67.1167Z" fill="#EDEDF4"/>
<path d="M181.692 39.9918C182.376 39.5372 183.156 39.2472 183.97 39.1447C184.859 39.0459 185.793 38.4684 186.628 38.7458C187.464 39.0231 188.147 39.8855 188.789 40.5047C188.644 39.9576 188.88 38.9851 188.572 38.4874C188.143 37.7694 187.137 37.4503 186.507 36.9678C185.868 36.4628 185.137 36.0884 184.354 35.8661C183.576 35.6686 182.657 35.0835 181.848 35.2013C181.039 35.3191 180.401 36.208 179.684 36.6373C178.984 37.0453 178.371 37.5875 177.88 38.2329C177.394 38.8863 176.589 39.5132 176.392 40.2957C176.195 41.0783 176.658 42.0015 176.772 42.8107C176.886 43.6199 177.611 44.0643 178.04 44.7823C178.347 45.2952 177.839 45.903 178.252 46.3019C178.017 45.4706 177.97 44.597 178.116 43.7452C178.258 42.8024 178.588 41.8979 179.088 41.0859C179.589 40.3945 180.903 40.4629 181.692 39.9918Z" fill="#EDEDF4"/>
<path d="M223.575 31.0681C224.396 31.0287 225.215 31.1822 225.967 31.5163C226.779 31.8962 227.884 31.8621 228.461 32.5307C229.038 33.1993 229.156 34.2934 229.403 35.1596C229.562 34.6125 230.265 33.9097 230.265 33.3133C230.265 32.4737 229.559 31.6873 229.259 30.9579C228.97 30.1962 228.535 29.4981 227.979 28.9026C227.413 28.3366 226.927 27.3527 226.172 27.0373C225.416 26.722 224.414 27.1665 223.575 27.1665C222.766 27.1546 221.963 27.3045 221.213 27.6072C220.454 27.9187 219.436 28.0365 218.871 28.6063C218.305 29.1762 218.229 30.2133 217.914 30.9655C217.599 31.7177 218.001 32.4851 218.001 33.3133C218.001 33.9097 217.242 34.1642 217.394 34.7075C217.619 33.8692 218.026 33.0909 218.586 32.4281C219.195 31.694 219.943 31.0884 220.788 30.6464C221.563 30.3045 222.648 31.0681 223.575 31.0681Z" fill="#EDEDF4"/>
<path d="M265.097 41.3671C265.854 41.6908 266.526 42.1863 267.06 42.8145C267.629 43.5021 268.632 43.9542 268.859 44.8128C269.087 45.6713 268.723 46.7123 268.571 47.586C268.951 47.1643 269.888 46.8262 270.146 46.2982C270.526 45.5384 270.219 44.5278 270.264 43.7414C270.335 42.9304 270.246 42.1135 270.002 41.3367C269.736 40.5769 269.725 39.4828 269.182 38.8711C268.639 38.2595 267.542 38.2177 266.79 37.8568C266.067 37.4941 265.278 37.2797 264.47 37.2262C263.654 37.1806 262.686 36.8463 261.926 37.1122C261.167 37.3781 260.651 38.2747 260.028 38.818C259.405 39.3612 259.447 40.2122 259.083 40.9682C258.824 41.5038 258.031 41.4051 257.944 41.9673C258.508 41.3144 259.211 40.7953 260.001 40.4477C260.868 40.0494 261.805 39.8286 262.758 39.7981C263.624 39.8133 264.269 40.9682 265.097 41.3671Z" fill="#EDEDF4"/>
<path d="M292.893 68.1499C293.65 68.4726 294.322 68.9668 294.856 69.5935C295.426 70.2849 296.428 70.7332 296.656 71.5956C296.884 72.458 296.519 73.4951 296.367 74.3688C296.747 73.9472 297.685 73.609 297.943 73.081C298.323 72.3212 298.015 71.3107 298.061 70.5205C298.131 69.7107 298.042 68.895 297.799 68.1195C297.533 67.3597 297.521 66.2656 296.979 65.654C296.436 65.0423 295.338 65.0005 294.587 64.6358C293.862 64.2763 293.074 64.0633 292.267 64.009C291.45 63.9596 290.482 63.6291 289.723 63.8912C288.963 64.1534 288.447 65.0575 287.824 65.6008C287.202 66.144 287.244 66.995 286.879 67.751C286.621 68.2867 285.827 68.1879 285.74 68.7501C286.305 68.0975 287.008 67.5785 287.798 67.2305C288.665 66.8352 289.602 66.6157 290.554 66.5847C291.42 66.6075 292.065 67.7472 292.893 68.1499Z" fill="#EDEDF4"/>
<path d="M316.916 109.354C317.673 109.676 318.345 110.171 318.878 110.797C319.444 111.485 320.45 111.937 320.678 112.799C320.906 113.662 320.541 114.699 320.39 115.573C320.769 115.151 321.703 114.813 321.961 114.285C322.341 113.525 322.037 112.515 322.079 111.724C322.151 110.914 322.063 110.097 321.821 109.32C321.555 108.56 321.544 107.466 321.001 106.858C320.458 106.25 319.361 106.204 318.605 105.84C317.882 105.48 317.095 105.266 316.289 105.209C315.473 105.164 314.505 104.829 313.745 105.095C312.986 105.361 312.469 106.261 311.847 106.805C311.224 107.348 311.266 108.199 310.901 108.955C310.643 109.491 309.85 109.392 309.762 109.954C310.327 109.301 311.03 108.782 311.82 108.434C312.687 108.037 313.624 107.818 314.577 107.789C315.458 107.8 316.088 108.955 316.916 109.354Z" fill="#EDEDF4"/>
<path d="M243.132 116.906C243.891 117.229 244.563 117.724 245.095 118.354C245.665 119.041 246.667 119.493 246.895 120.352C247.123 121.21 246.762 122.251 246.61 123.125C246.99 122.703 247.924 122.365 248.182 121.837C248.562 121.077 248.254 120.067 248.3 119.281C248.371 118.47 248.284 117.653 248.042 116.876C247.776 116.116 247.764 115.022 247.218 114.41C246.671 113.799 245.581 113.761 244.826 113.396C244.102 113.033 243.313 112.818 242.506 112.765C241.689 112.72 240.725 112.385 239.966 112.651C239.206 112.917 238.686 113.814 238.067 114.357C237.448 114.9 237.486 115.751 237.122 116.507C236.864 117.047 236.07 116.948 235.983 117.506C236.547 116.853 237.25 116.333 238.041 115.987C238.906 115.589 239.842 115.368 240.793 115.337C241.659 115.352 242.305 116.507 243.132 116.906Z" fill="#EDEDF4"/>
<path d="M340.251 153.646C341.008 153.97 341.68 154.465 342.214 155.094C342.779 155.781 343.782 156.233 344.013 157.092C344.245 157.95 343.877 158.991 343.725 159.865C344.104 159.443 345.038 159.105 345.297 158.577C345.676 157.817 345.373 156.807 345.414 156.02C345.486 155.21 345.398 154.393 345.156 153.616C344.89 152.856 344.879 151.762 344.336 151.15C343.793 150.539 342.696 150.497 341.94 150.136C341.218 149.773 340.431 149.559 339.624 149.505C338.808 149.46 337.84 149.125 337.08 149.391C336.321 149.657 335.805 150.554 335.182 151.097C334.559 151.64 334.601 152.491 334.237 153.247C333.978 153.783 333.185 153.684 333.098 154.246C333.662 153.593 334.365 153.073 335.155 152.727C336.022 152.329 336.959 152.108 337.912 152.077C338.778 152.085 339.423 153.247 340.251 153.646Z" fill="#EDEDF4"/>
<path d="M225.545 1.58026L226.76 4.042C226.964 4.45345 227.264 4.80942 227.635 5.07938C228.006 5.34934 228.437 5.52524 228.89 5.59199L231.605 5.97188C232.128 6.04789 232.62 6.26896 233.024 6.61006C233.429 6.95116 233.729 7.39868 233.892 7.90196C234.056 8.40523 234.075 8.94417 233.948 9.45775C233.821 9.97134 233.552 10.4391 233.173 10.808L231.21 12.7075C230.88 13.0335 230.634 13.4356 230.494 13.8786C230.354 14.3216 230.325 14.7921 230.409 15.249L230.872 17.9539C230.961 18.4748 230.903 19.0101 230.703 19.4994C230.504 19.9888 230.172 20.4127 229.745 20.7232C229.318 21.0338 228.812 21.2186 228.285 21.2569C227.759 21.2952 227.232 21.1854 226.764 20.9399L224.334 19.6634C223.928 19.4501 223.476 19.3387 223.017 19.3387C222.558 19.3387 222.106 19.4501 221.699 19.6634L219.269 20.9399C218.802 21.1854 218.275 21.2952 217.748 21.2569C217.221 21.2186 216.716 21.0338 216.289 20.7232C215.861 20.4127 215.529 19.9888 215.33 19.4994C215.131 19.0101 215.072 18.4748 215.161 17.9539L215.602 15.249C215.678 14.7956 215.644 14.3303 215.502 13.893C215.36 13.4556 215.114 13.0593 214.785 12.7379L212.822 10.8384C212.443 10.4695 212.175 10.0017 212.048 9.48814C211.921 8.97456 211.94 8.43562 212.103 7.93235C212.266 7.42907 212.567 6.98156 212.971 6.64045C213.376 6.29935 213.867 6.07828 214.39 6.00228L217.105 5.62238C217.56 5.55621 217.991 5.38058 218.363 5.11058C218.735 4.84059 219.035 4.48432 219.239 4.07239L220.454 1.61065C220.684 1.13193 221.043 0.72745 221.492 0.443329C221.94 0.159209 222.459 0.00688077 222.99 0.00371256C223.521 0.00054434 224.042 0.146663 224.494 0.42541C224.946 0.704157 225.31 1.10432 225.545 1.58026Z" fill="#FEE374"/>
<path d="M286.651 298.091C286.651 298.969 281.639 298.224 281.096 299.041C280.641 299.721 283.401 303.25 282.615 303.873C281.962 304.39 280.819 304.762 279.957 305.229C279.198 305.636 277.926 305.279 277.038 305.64C276.237 305.966 275.033 305.294 274.126 305.583C273.294 305.849 272.094 304.652 271.183 304.88C270.272 305.108 269.539 305.26 268.624 305.431C267.709 305.602 267.322 308.208 266.403 308.344C265.484 308.481 264.258 305.385 263.335 305.488C262.412 305.59 261.896 309.15 260.973 309.214C260.051 309.279 259.132 308.835 258.213 308.88C257.294 308.926 256.398 306.035 255.479 306.035C254.561 306.035 253.581 311.03 252.674 311C251.766 310.97 250.889 309.161 249.997 309.1C249.105 309.04 248.235 308.136 247.339 308.037C246.443 307.938 245.82 305.757 244.955 305.624C244.089 305.491 243.178 305.693 242.297 305.522C241.416 305.351 239.791 308.367 238.937 308.151C238.082 307.934 237.695 305.693 236.86 305.427C235.956 305.142 235.774 303.33 234.962 303.003C234.069 302.623 232.281 304.599 231.544 304.192C230.683 303.725 230.132 302.919 229.479 302.403C228.685 301.78 230.265 299.744 229.813 299.06C229.266 298.243 226.449 298.972 226.449 298.095C226.517 297.163 226.857 296.272 227.425 295.53C227.88 294.85 229.908 295.96 230.702 295.337C231.355 294.824 230.629 292.362 231.495 291.895C232.254 291.488 232.121 288.707 233.014 288.347C233.815 288.02 235.155 288.506 236.051 288.217C236.886 287.951 237.87 287.655 238.781 287.427C239.692 287.199 240.531 286.538 241.439 286.36C242.346 286.181 243.694 288.574 244.613 288.438C245.532 288.301 246.09 285.471 247.013 285.372C247.935 285.273 249.15 288.742 250.069 288.677C250.988 288.612 251.884 289.988 252.803 289.957C253.722 289.927 254.526 287.499 255.46 287.499C256.394 287.499 257.279 287.773 258.175 287.803C259.071 287.834 260.146 285.687 261.038 285.752C261.93 285.816 262.701 288.069 263.589 288.164C264.478 288.259 265.518 287.621 266.395 287.75C267.272 287.879 267.766 290.432 268.635 290.603C269.505 290.774 270.446 290.546 271.293 290.759C272.208 290.991 273.237 290.436 274.072 290.698C274.976 290.987 275.378 292.267 276.18 292.598C277.072 292.978 278.97 290.953 279.718 291.359C280.588 291.772 281.426 292.249 282.224 292.788C283.018 293.411 284.502 293.87 284.965 294.554C285.524 295.363 286.651 297.206 286.651 298.091Z" fill="#EDEDF4"/>
<path d="M325.758 298.091C325.758 298.969 320.747 298.224 320.204 299.041C319.748 299.721 322.508 303.25 321.722 303.873C321.069 304.39 319.926 304.762 319.065 305.229C318.305 305.636 317.033 305.279 316.145 305.64C315.344 305.966 314.14 305.294 313.233 305.583C312.401 305.849 311.201 304.652 310.29 304.88C309.379 305.108 308.646 305.26 307.731 305.431C306.816 305.602 306.429 308.208 305.51 308.344C304.591 308.481 303.365 305.385 302.442 305.488C301.52 305.59 301.003 309.15 300.081 309.214C299.158 309.279 298.239 308.835 297.32 308.88C296.401 308.926 295.505 306.035 294.587 306.035C293.668 306.035 292.688 311.03 291.781 311C290.873 310.97 289.996 309.161 289.104 309.1C288.212 309.04 287.342 308.136 286.446 308.037C285.55 307.938 284.927 305.757 284.062 305.624C283.196 305.491 282.285 305.693 281.404 305.522C280.523 305.351 278.898 308.367 278.044 308.151C277.19 307.934 276.802 305.693 275.967 305.427C275.063 305.142 274.881 303.33 274.069 303.003C273.176 302.623 271.388 304.599 270.651 304.192C269.79 303.725 269.239 302.919 268.586 302.403C267.792 301.78 269.372 299.744 268.92 299.06C268.373 298.243 265.556 298.972 265.556 298.095C265.625 297.163 265.964 296.272 266.532 295.53C266.988 294.85 269.015 295.96 269.809 295.337C270.462 294.824 269.736 292.362 270.602 291.895C271.361 291.488 271.229 288.707 272.121 288.347C272.922 288.02 274.262 288.506 275.158 288.217C275.994 287.951 276.977 287.655 277.888 287.427C278.799 287.199 279.639 286.538 280.546 286.36C281.453 286.181 282.801 288.574 283.72 288.438C284.639 288.301 285.197 285.471 286.12 285.372C287.042 285.273 288.257 288.742 289.176 288.677C290.095 288.612 290.991 289.988 291.91 289.957C292.829 289.927 293.634 287.499 294.568 287.499C295.502 287.499 296.386 287.773 297.282 287.803C298.178 287.834 299.253 285.687 300.145 285.752C301.037 285.816 301.808 288.069 302.697 288.164C303.585 288.259 304.625 287.621 305.502 287.75C306.379 287.879 306.873 290.432 307.742 290.603C308.612 290.774 309.554 290.546 310.4 290.759C311.315 290.991 312.344 290.436 313.18 290.698C314.083 290.987 314.486 292.267 315.287 292.598C316.179 292.978 318.077 290.953 318.825 291.359C319.695 291.772 320.533 292.249 321.331 292.788C322.125 293.411 323.609 293.87 324.073 294.554C324.631 295.363 325.758 297.206 325.758 298.091Z" fill="#EDEDF4"/>
<path d="M221.726 296.571C221.726 297.449 216.714 296.704 216.171 297.521C215.716 298.201 218.476 301.73 217.69 302.353C217.037 302.87 215.894 303.242 215.032 303.71C214.273 304.116 213.001 303.759 212.112 304.12C211.311 304.447 210.108 303.774 209.2 304.063C208.369 304.329 207.169 303.132 206.258 303.36C205.346 303.588 204.614 303.74 203.699 303.911C202.784 304.082 202.396 306.688 201.478 306.825C200.559 306.962 199.332 303.865 198.41 303.968C197.487 304.071 196.971 307.63 196.048 307.695C195.125 307.759 194.207 307.315 193.288 307.361C192.369 307.406 191.473 304.515 190.554 304.515C189.635 304.515 188.656 309.511 187.748 309.48C186.841 309.45 185.964 307.642 185.072 307.581C184.179 307.52 183.31 306.616 182.414 306.517C181.518 306.418 180.895 304.238 180.029 304.105C179.164 303.972 178.252 304.173 177.372 304.002C176.491 303.831 174.866 306.848 174.011 306.631C173.1 306.403 172.77 304.173 171.935 303.907C171.031 303.622 170.849 301.81 170.036 301.484C169.144 301.104 167.356 303.079 166.619 302.673C165.757 302.205 165.207 301.4 164.554 300.883C163.76 300.26 165.339 298.224 164.888 297.54C164.341 296.723 161.524 297.453 161.524 296.575C161.592 295.644 161.931 294.752 162.499 294.011C162.955 293.331 164.983 294.44 165.776 293.817C166.429 293.304 165.704 290.843 166.57 290.375C167.329 289.969 167.196 287.188 168.088 286.827C168.89 286.5 170.23 286.987 171.126 286.698C171.961 286.432 172.944 286.136 173.856 285.908C174.767 285.68 175.606 285.019 176.513 284.84C177.421 284.662 178.769 287.055 179.688 286.918C180.606 286.781 181.165 283.951 182.087 283.852C183.01 283.754 184.225 287.222 185.144 287.158C186.062 287.093 186.959 288.468 187.877 288.438C188.796 288.407 189.601 285.98 190.535 285.98C191.469 285.98 192.354 286.253 193.25 286.284C194.146 286.314 195.22 284.168 196.113 284.232C197.005 284.297 197.776 286.55 198.664 286.645C199.553 286.74 200.593 286.101 201.47 286.231C202.347 286.36 202.841 288.913 203.71 289.084C204.579 289.255 205.521 289.027 206.368 289.239C207.283 289.471 208.312 288.916 209.147 289.179C210.051 289.467 210.453 290.748 211.254 291.078C212.147 291.458 214.045 289.433 214.793 289.84C215.663 290.252 216.501 290.73 217.299 291.268C218.092 291.891 219.577 292.351 220.04 293.035C220.598 293.844 221.726 295.686 221.726 296.571Z" fill="#EDEDF4"/>
<path d="M188.694 295.812C188.694 296.689 183.682 295.945 183.139 296.761C182.683 297.441 185.444 300.971 184.658 301.594C184.005 302.11 182.862 302.483 182 302.95C181.241 303.356 179.969 302.999 179.08 303.36C178.279 303.687 177.075 303.015 176.168 303.303C175.337 303.569 174.137 302.373 173.225 302.6C172.314 302.828 171.581 302.98 170.666 303.151C169.751 303.322 169.364 305.928 168.445 306.065C167.526 306.202 166.3 303.106 165.377 303.208C164.455 303.311 163.938 306.871 163.016 306.935C162.093 307 161.174 306.555 160.256 306.601C159.337 306.646 158.441 303.755 157.522 303.755C156.603 303.755 155.623 308.751 154.716 308.721C153.809 308.69 152.932 306.882 152.039 306.821C151.147 306.76 150.278 305.856 149.382 305.757C148.485 305.659 147.863 303.478 146.997 303.345C146.131 303.212 145.22 303.413 144.339 303.242C143.459 303.072 141.833 306.088 140.979 305.871C140.068 305.643 139.738 303.413 138.902 303.148C137.999 302.863 137.816 301.05 137.004 300.724C136.112 300.344 134.323 302.319 133.587 301.913C132.725 301.446 132.174 300.64 131.521 300.124C130.728 299.5 132.307 297.464 131.855 296.78C131.309 295.964 128.492 296.693 128.492 295.815C128.56 294.884 128.899 293.992 129.467 293.251C129.923 292.571 131.95 293.68 132.744 293.057C133.397 292.545 132.672 290.083 133.537 289.616C134.297 289.209 134.164 286.428 135.056 286.067C135.857 285.741 137.198 286.227 138.094 285.938C138.929 285.672 139.912 285.376 140.824 285.148C141.735 284.92 142.574 284.259 143.481 284.08C144.389 283.902 145.737 286.295 146.655 286.158C147.574 286.022 148.132 283.191 149.055 283.093C149.978 282.994 151.193 286.462 152.092 286.398C152.992 286.333 153.907 287.708 154.826 287.678C155.745 287.648 156.55 285.22 157.484 285.22C158.418 285.22 159.303 285.494 160.199 285.524C161.095 285.554 162.169 283.408 163.061 283.473C163.954 283.537 164.724 285.79 165.613 285.885C166.501 285.98 167.542 285.342 168.419 285.471C169.296 285.6 169.789 288.153 170.659 288.324C171.528 288.495 172.47 288.267 173.317 288.48C174.232 288.711 175.261 288.157 176.096 288.419C177 288.708 177.402 289.988 178.203 290.318C179.095 290.698 180.994 288.673 181.742 289.08C182.612 289.492 183.449 289.97 184.248 290.508C185.041 291.131 186.526 291.591 186.989 292.275C187.566 293.084 188.694 294.927 188.694 295.812Z" fill="#EDEDF4"/>
<path d="M160.833 278.815V287.078L158.65 291.485L158.581 291.625L152.799 291.245L150.578 291.097L145.418 290.755V280.87L150.578 281.015L152.882 281.079L158.718 281.246L160.833 278.815Z" fill="#FF6F61"/>
<path opacity="0.1" d="M160.833 279.301V287.078L160.301 288.157L159.751 289.258L158.65 291.485L158.775 283.222L158.798 281.554L159.846 280.392L160.305 279.886L160.833 279.301Z" fill="black"/>
<path d="M161.129 276.619V279.506L160.833 279.978L160.305 280.821L159.834 281.569L158.798 283.222H158.775L144.966 282.511V279.662L145 279.624L146.648 277.843L147.244 277.193L148.326 276.027L161.129 276.619Z" fill="#FF6F61"/>
<path opacity="0.1" d="M158.798 280.376V283.222L144.966 282.512V279.662L145 279.624L158.798 280.376Z" fill="black"/>
<path opacity="0.15" d="M161.129 276.619V279.506L158.798 283.222V280.376L161.129 276.619Z" fill="black"/>
<path d="M160.305 277.945V279.886V280.821L160.301 288.157L159.751 289.258L159.834 281.569L159.846 280.392L159.865 278.655L146.648 277.842L147.244 277.193L160.305 277.945Z" fill="#3F3D56"/>
<path d="M153.82 278.044L152.894 280.053L152.882 281.079L152.799 291.245L150.578 291.097V279.92L151.762 278.044H153.82Z" fill="#3F3D56"/>
<path d="M150.767 278.177C150.233 278.356 149.658 278.377 149.112 278.238C149.005 278.216 148.905 278.17 148.82 278.101C148.729 278 148.668 277.877 148.641 277.744C148.545 277.47 148.491 277.183 148.482 276.893C148.479 276.747 148.509 276.603 148.571 276.471C148.633 276.339 148.725 276.224 148.839 276.133C148.886 276.103 148.931 276.069 148.971 276.03C149.021 275.968 149.057 275.895 149.078 275.818C149.237 275.335 149.552 274.826 150.054 274.746C150.555 274.667 150.942 275.001 151.299 275.305L152.085 275.973C152.173 275.74 152.329 275.538 152.534 275.394C152.738 275.251 152.981 275.172 153.231 275.169C153.48 275.165 153.725 275.238 153.933 275.376C154.141 275.514 154.303 275.712 154.397 275.943C154.873 275.407 155.473 274.995 156.144 274.743C156.216 274.71 156.294 274.693 156.373 274.693C156.453 274.693 156.531 274.71 156.603 274.743C156.687 274.805 156.751 274.891 156.785 274.99C157 275.457 157.117 275.964 157.127 276.479C157.182 276.461 157.242 276.461 157.297 276.481C157.352 276.5 157.399 276.537 157.431 276.585C157.492 276.683 157.526 276.796 157.529 276.912C157.552 277.092 157.564 277.273 157.564 277.455C157.581 277.646 157.53 277.838 157.419 277.995C157.327 278.076 157.218 278.137 157.1 278.174C156.983 278.21 156.858 278.222 156.736 278.207C156.76 278.238 156.778 278.273 156.787 278.311C156.797 278.348 156.799 278.387 156.792 278.426C156.786 278.464 156.771 278.501 156.75 278.533C156.728 278.565 156.7 278.593 156.668 278.614C156.527 278.689 156.367 278.721 156.208 278.705C155.594 278.752 154.98 278.62 154.439 278.325C154.238 278.192 154.059 278.014 153.866 277.881C153.352 277.601 152.763 277.49 152.184 277.565C151.667 277.584 151.257 278.013 150.767 278.177Z" fill="#3F3D56"/>
<path d="M150.676 278.044C150.676 278.044 145.577 278.754 144.867 281.843L145.934 281.683L146.693 283.028C146.693 283.028 147.487 280.023 149.818 279.313C150.845 278.97 151.893 278.69 152.954 278.477C152.954 278.477 154.576 278.857 156.037 283.579L156.869 282.439L158.331 282.754C158.331 282.754 157.264 279.077 154.378 278.051L150.676 278.044Z" fill="#3F3D56"/>
<path d="M177.577 278.059V290.258L174.353 296.765L174.251 296.97L165.719 296.408L162.439 296.188L154.826 295.686V281.094L162.439 281.311L165.844 281.406L174.456 281.649L177.577 278.059Z" fill="#905ECE"/>
<path opacity="0.1" d="M177.577 278.781V290.257L176.787 291.849L175.982 293.475V293.479L174.353 296.765L174.535 284.567L174.573 282.105L176.119 280.392L176.794 279.643L177.577 278.781Z" fill="black"/>
<path d="M178.013 274.819V279.081L177.577 279.78L176.794 281.026L176.1 282.128L174.573 284.567H174.535L154.154 283.518V279.313L154.207 279.26L156.641 276.623L157.522 275.67L159.113 273.945L178.013 274.819Z" fill="#905ECE"/>
<path opacity="0.1" d="M174.573 280.365V284.567L154.154 283.518V279.313L154.207 279.26L174.573 280.365Z" fill="black"/>
<path opacity="0.15" d="M178.013 274.818V279.081L174.573 284.567V280.365L178.013 274.818Z" fill="black"/>
<path d="M176.794 276.783V279.643V281.026L176.787 291.849L175.982 293.475L176.1 282.128L176.119 280.392L176.149 277.827L156.641 276.623L157.522 275.669L176.794 276.783Z" fill="#3F3D56"/>
<path d="M167.223 276.919L165.856 279.89L165.844 281.406L165.719 296.408L162.439 296.188V279.693L164.189 276.919H167.223Z" fill="#3F3D56"/>
<path d="M162.72 277.121C161.93 277.383 161.081 277.413 160.275 277.208C160.118 277.176 159.971 277.109 159.846 277.011C159.713 276.86 159.621 276.679 159.58 276.483C159.437 276.078 159.359 275.654 159.348 275.225C159.34 275.008 159.383 274.791 159.473 274.593C159.563 274.396 159.699 274.222 159.868 274.085C159.94 274.043 160.007 273.993 160.07 273.937C160.142 273.844 160.194 273.736 160.221 273.622C160.461 272.911 160.924 272.155 161.668 272.042C162.412 271.928 162.978 272.421 163.506 272.866L164.645 273.854C164.773 273.506 165.003 273.205 165.305 272.992C165.607 272.778 165.967 272.66 166.338 272.656C166.708 272.651 167.071 272.758 167.379 272.964C167.686 273.17 167.925 273.464 168.062 273.808C168.764 273.016 169.649 272.408 170.64 272.038C170.744 271.983 170.859 271.952 170.977 271.948C171.094 271.943 171.211 271.965 171.319 272.011C171.443 272.102 171.536 272.228 171.589 272.372C171.904 273.063 172.075 273.812 172.09 274.572C172.171 274.543 172.26 274.543 172.342 274.571C172.423 274.599 172.492 274.654 172.538 274.727C172.627 274.873 172.678 275.039 172.686 275.21C172.717 275.476 172.732 275.744 172.732 276.011C172.758 276.294 172.684 276.576 172.523 276.809C172.385 276.928 172.225 277.017 172.051 277.071C171.877 277.125 171.694 277.142 171.513 277.121C171.549 277.166 171.575 277.218 171.59 277.273C171.604 277.329 171.607 277.387 171.597 277.444C171.587 277.501 171.566 277.555 171.534 277.602C171.501 277.65 171.459 277.691 171.411 277.721C171.203 277.835 170.966 277.881 170.731 277.854C169.831 277.854 168.871 277.82 168.119 277.318C167.823 277.121 167.576 276.859 167.28 276.661C166.551 276.179 165.636 276.156 164.793 276.194C164.049 276.247 163.445 276.878 162.72 277.121Z" fill="#3F3D56"/>
<path d="M162.556 276.923C162.556 276.923 155.031 277.972 153.979 282.527L155.555 282.291L156.664 284.278C156.664 284.278 157.829 279.841 161.273 278.788C164.717 277.736 165.939 277.565 165.939 277.565C165.939 277.565 168.331 278.146 170.496 285.095L171.722 283.4L173.879 283.868C173.879 283.868 172.303 278.439 168.047 276.923H162.556Z" fill="#3F3D56"/>
<path d="M180.591 294.292C180.591 295.033 177.649 294.205 176.593 294.835C175.925 295.215 176.297 298.083 175.287 298.418C174.49 298.68 173.453 298.76 172.477 298.972C171.627 299.159 170.579 298.798 169.622 298.938C168.745 299.067 167.754 298.535 166.801 298.623C165.909 298.703 164.967 297.863 164.018 297.89C163.069 297.916 162.249 297.935 161.307 297.935C160.366 297.935 159.432 299.455 158.532 299.417C157.632 299.379 156.827 297.327 155.939 297.248C154.982 297.16 153.847 299.208 152.973 299.083C152.009 298.942 151.132 298.486 150.281 298.304C149.306 298.091 148.956 296.146 148.159 295.884C147.149 295.553 145.042 297.996 144.362 297.597C143.307 296.967 143.105 295.033 143.105 294.292C143.105 293.551 144.123 292.989 145.182 292.355C145.847 291.975 147.081 292.829 148.083 292.499C148.88 292.233 149.583 291.826 150.562 291.614C151.409 291.428 151.944 289.262 152.905 289.122C153.782 288.996 154.857 290.151 155.81 290.064C156.702 289.984 157.647 290.938 158.593 290.9C159.538 290.862 160.354 289.274 161.296 289.274C162.238 289.274 163.153 289.528 164.056 289.57C164.96 289.612 165.772 291.268 166.665 291.352C167.618 291.435 168.711 289.691 169.584 289.832C170.549 289.973 171.449 290.212 172.295 290.402C173.275 290.615 173.734 292.18 174.535 292.442C175.542 292.772 176.905 291.705 177.573 292.104C178.64 292.719 180.591 293.551 180.591 294.292Z" fill="#EDEDF4"/>
<path d="M201.474 291.253C201.474 291.994 198.531 291.166 197.476 291.796C196.807 292.176 197.18 295.044 196.17 295.379C195.372 295.641 194.336 295.721 193.36 295.933C192.509 296.119 191.462 295.759 190.505 295.899C189.628 296.028 188.637 295.496 187.684 295.584C186.791 295.664 185.85 294.824 184.901 294.851C183.951 294.877 183.131 294.896 182.19 294.896C181.248 294.896 180.314 296.416 179.414 296.378C178.514 296.34 177.71 294.288 176.821 294.209C175.864 294.121 174.729 296.169 173.856 296.043C172.891 295.903 172.014 295.447 171.164 295.265C170.188 295.052 169.839 293.107 169.041 292.845C168.031 292.514 165.924 294.957 165.245 294.558C164.189 293.927 163.988 291.994 163.988 291.253C163.988 290.512 165.005 289.95 166.065 289.315C166.729 288.936 167.963 289.79 168.965 289.46C169.763 289.194 170.465 288.787 171.445 288.575C172.291 288.389 172.827 286.223 173.787 286.083C174.664 285.957 175.739 287.112 176.692 287.025C177.584 286.945 178.53 287.898 179.475 287.86C180.42 287.822 181.237 286.234 182.178 286.234C183.12 286.234 184.035 286.489 184.939 286.531C185.842 286.573 186.655 288.229 187.547 288.313C188.5 288.396 189.594 286.652 190.467 286.793C191.431 286.934 192.331 287.173 193.178 287.363C194.157 287.576 194.617 289.141 195.418 289.403C196.424 289.733 197.787 288.666 198.455 289.065C199.522 289.68 201.474 290.512 201.474 291.253Z" fill="#EDEDF4"/>
<path d="M245.646 296.951C245.646 297.829 240.634 297.084 240.091 297.901C239.635 298.581 242.396 302.11 241.61 302.733C240.957 303.25 239.814 303.622 238.952 304.09C238.193 304.496 236.921 304.139 236.032 304.5C235.231 304.827 234.028 304.154 233.12 304.443C232.289 304.709 231.089 303.512 230.178 303.74C229.266 303.968 228.534 304.12 227.619 304.291C226.704 304.462 226.316 307.068 225.397 307.205C224.479 307.342 223.252 304.245 222.33 304.348C221.407 304.451 220.891 308.01 219.968 308.075C219.045 308.139 218.127 307.695 217.208 307.74C216.289 307.786 215.393 304.895 214.474 304.895C213.555 304.895 212.576 309.891 211.668 309.86C210.761 309.83 209.884 308.022 208.991 307.961C208.099 307.9 207.23 306.996 206.334 306.897C205.438 306.798 204.815 304.618 203.949 304.485C203.084 304.352 202.172 304.553 201.291 304.382C200.411 304.211 198.786 307.228 197.931 307.011C197.077 306.794 196.69 304.553 195.854 304.287C194.951 304.002 194.769 302.19 193.956 301.863C193.064 301.484 191.275 303.459 190.539 303.052C189.677 302.585 189.126 301.78 188.473 301.263C187.68 300.64 189.259 298.604 188.808 297.92C188.261 297.103 185.444 297.833 185.444 296.955C185.512 296.023 185.851 295.132 186.419 294.391C186.875 293.711 188.902 294.82 189.696 294.197C190.349 293.684 189.624 291.222 190.49 290.755C191.249 290.349 191.116 287.568 192.008 287.207C192.809 286.88 194.15 287.366 195.046 287.078C195.881 286.812 196.864 286.515 197.776 286.288C198.687 286.06 199.526 285.399 200.433 285.22C201.341 285.041 202.689 287.435 203.608 287.298C204.526 287.161 205.084 284.331 206.007 284.232C206.93 284.134 208.145 287.602 209.064 287.537C209.982 287.473 210.878 288.848 211.797 288.818C212.716 288.787 213.521 286.36 214.455 286.36C215.389 286.36 216.274 286.633 217.17 286.664C218.066 286.694 219.14 284.548 220.033 284.612C220.925 284.677 221.696 286.93 222.584 287.025C223.472 287.12 224.513 286.481 225.39 286.61C226.267 286.74 226.76 289.293 227.63 289.464C228.499 289.634 229.441 289.407 230.288 289.619C231.203 289.851 232.232 289.296 233.067 289.558C233.971 289.847 234.373 291.127 235.174 291.458C236.066 291.838 237.965 289.813 238.713 290.22C239.583 290.632 240.42 291.109 241.219 291.648C242.012 292.271 243.497 292.731 243.96 293.414C244.518 294.224 245.646 296.066 245.646 296.951Z" fill="#EDEDF4"/>
<path d="M302.529 256.53V274.082L297.89 283.442L297.746 283.739L285.47 282.929L280.747 282.614L269.797 281.892V260.899L280.747 261.207L285.649 261.344L298.038 261.697L302.529 256.53Z" fill="#FF6F61"/>
<path opacity="0.1" d="M302.529 257.567V274.082L301.394 276.369L300.232 278.713L297.89 283.442L298.152 265.891L298.205 262.35L300.434 259.885L301.406 258.81L302.529 257.567Z" fill="black"/>
<path d="M303.16 251.869V258L302.529 259.003L301.406 260.796L300.407 262.384L298.205 265.895L298.152 265.891L268.833 264.383V258.335L268.905 258.255L272.406 254.464L273.674 253.092L275.967 250.611L303.16 251.869Z" fill="#FF6F61"/>
<path opacity="0.1" d="M298.205 259.847V265.895L268.833 264.383V258.335L268.905 258.255L298.205 259.847Z" fill="black"/>
<path opacity="0.15" d="M303.16 251.869V258L298.205 265.895V259.847L303.16 251.869Z" fill="black"/>
<path d="M301.406 254.691V258.81V260.796L301.394 276.368L300.232 278.712L300.407 262.384L300.434 259.885L300.472 256.196L272.406 254.463L273.674 253.092L301.406 254.691Z" fill="#3F3D56"/>
<path d="M287.631 254.893L285.664 259.167L285.649 261.343L285.47 282.929L280.747 282.614V258.882L283.268 254.893H287.631Z" fill="#3F3D56"/>
<path d="M281.153 255.182C280.018 255.561 278.797 255.604 277.638 255.307C277.412 255.26 277.2 255.162 277.019 255.018C276.826 254.804 276.695 254.541 276.639 254.258C276.433 253.676 276.319 253.064 276.301 252.446C276.296 252.137 276.362 251.831 276.493 251.551C276.625 251.271 276.819 251.025 277.06 250.832C277.164 250.769 277.26 250.697 277.349 250.615C277.454 250.483 277.529 250.33 277.569 250.167C277.911 249.141 278.579 248.058 279.65 247.887C280.633 247.736 281.548 248.427 282.308 249.073L283.974 250.494C284.161 249.997 284.493 249.567 284.927 249.262C285.361 248.957 285.877 248.79 286.407 248.783C286.937 248.776 287.458 248.929 287.9 249.223C288.341 249.517 288.684 249.937 288.884 250.429C289.895 249.289 291.17 248.414 292.597 247.88C292.746 247.802 292.911 247.758 293.079 247.752C293.247 247.745 293.414 247.776 293.569 247.842C293.745 247.973 293.877 248.155 293.949 248.362C294.401 249.357 294.647 250.434 294.67 251.527C294.787 251.487 294.914 251.487 295.03 251.527C295.147 251.567 295.247 251.644 295.316 251.747C295.442 251.959 295.515 252.199 295.528 252.446C295.574 252.824 295.595 253.205 295.593 253.586C295.63 253.989 295.524 254.393 295.293 254.726C294.951 255.106 294.363 255.166 293.842 255.178C293.894 255.243 293.931 255.318 293.951 255.398C293.972 255.478 293.975 255.562 293.96 255.643C293.946 255.725 293.915 255.802 293.868 255.871C293.821 255.939 293.761 255.997 293.691 256.04C293.392 256.201 293.052 256.267 292.715 256.23C291.416 256.23 290.038 256.181 288.956 255.47C288.531 255.185 288.174 254.809 287.745 254.524C286.701 253.833 285.383 253.799 284.172 253.856C283.067 253.924 282.198 254.832 281.153 255.182Z" fill="#3F3D56"/>
<path d="M280.907 254.893C280.907 254.893 270.078 256.412 268.567 262.954L270.845 262.62L272.44 265.477C272.44 265.477 274.118 259.094 279.069 257.583C284.02 256.071 285.786 255.82 285.786 255.82C285.786 255.82 289.225 256.659 292.331 266.651L294.093 264.216L297.199 264.888C297.199 264.888 294.921 257.077 288.808 254.893H280.907Z" fill="#3F3D56"/>
<path d="M287.399 263.395V287.104L281.134 299.748L280.937 300.146L264.353 299.052L257.978 298.631L243.185 297.65V269.295L257.978 269.709L264.596 269.899L281.336 270.37L287.399 263.395Z" fill="#905ECE"/>
<path opacity="0.1" d="M287.399 264.793V287.104L285.869 290.193L284.301 293.358V293.361L281.134 299.747L281.488 276.038L281.56 271.255L284.571 267.927V267.923L285.88 266.472L287.399 264.793Z" fill="black"/>
<path d="M288.25 257.1V265.378L287.399 266.734L285.88 269.158L284.533 271.301L281.56 276.042L281.488 276.038L241.879 274.002V265.834L241.982 265.724L246.709 260.603L248.421 258.749L251.516 255.398L288.25 257.1Z" fill="#905ECE"/>
<path opacity="0.1" d="M281.56 267.874V276.042L241.879 274.002V265.834L241.982 265.724L281.56 267.874Z" fill="black"/>
<path opacity="0.15" d="M288.25 257.1V265.378L281.56 276.042V267.874L288.25 257.1Z" fill="black"/>
<path d="M285.884 260.91L285.88 266.472V269.158L285.869 290.193L284.301 293.358L284.533 271.301L284.571 267.927V267.923L284.624 262.943L246.709 260.603L248.421 258.749L285.884 260.91Z" fill="#3F3D56"/>
<path d="M267.276 261.18L264.618 266.955L264.596 269.899L264.353 299.052L257.978 298.631V266.571L261.38 261.18H267.276Z" fill="#3F3D56"/>
<path d="M258.528 261.571C256.992 262.082 255.342 262.14 253.775 261.739C253.471 261.682 253.185 261.551 252.943 261.359C252.682 261.071 252.504 260.718 252.427 260.337C252.15 259.55 251.996 258.724 251.971 257.89C251.963 257.473 252.05 257.058 252.226 256.68C252.403 256.301 252.663 255.968 252.989 255.706C253.125 255.623 253.253 255.527 253.368 255.417C253.508 255.237 253.609 255.03 253.665 254.809C254.132 253.423 255.031 251.96 256.474 251.74C257.807 251.535 259.022 252.465 260.047 253.339L262.299 255.239C262.549 254.566 262.996 253.985 263.583 253.571C264.169 253.157 264.867 252.931 265.584 252.921C266.301 252.911 267.005 253.118 267.602 253.516C268.2 253.913 268.663 254.482 268.932 255.147C270.297 253.608 272.017 252.427 273.943 251.706C274.369 251.546 274.87 251.417 275.261 251.656C275.502 251.832 275.685 252.077 275.785 252.359C276.397 253.702 276.729 255.157 276.761 256.633C276.918 256.581 277.089 256.582 277.246 256.636C277.403 256.69 277.538 256.795 277.63 256.933C277.804 257.217 277.904 257.542 277.919 257.875C277.979 258.391 278.01 258.91 278.01 259.429C278.061 259.978 277.917 260.529 277.603 260.983C277.14 261.518 276.347 261.575 275.64 261.59C275.982 261.894 275.815 262.502 275.439 262.757C275.036 262.973 274.577 263.062 274.122 263.011C272.368 263.011 270.503 262.947 269.045 261.97C268.468 261.59 267.986 261.074 267.409 260.694C265.993 259.756 264.216 259.71 262.579 259.79C261.11 259.87 259.933 261.116 258.528 261.571Z" fill="#3F3D56"/>
<path d="M258.206 261.184C258.206 261.184 243.58 263.224 241.541 272.072L244.602 271.62L246.754 275.476C246.754 275.476 249.032 266.856 255.711 264.812C262.39 262.768 264.782 262.43 264.782 262.43C264.782 262.43 269.429 263.57 273.624 277.064L276.005 273.774L280.181 274.682C280.181 274.682 277.121 264.132 268.844 261.184H258.206Z" fill="#3F3D56"/>
<path d="M311.133 275.172V289.844L307.256 297.669L307.135 297.92L296.872 297.24L292.924 296.978L283.769 296.374V278.823L292.924 279.081L297.02 279.195L307.382 279.488L311.133 275.172Z" fill="#3F3D56"/>
<path opacity="0.1" d="M311.133 276.038V289.843L310.188 291.758L309.216 293.715V293.718L307.256 297.669L307.477 282.998L307.522 280.038L309.383 277.975L310.195 277.075L311.133 276.038Z" fill="black"/>
<path d="M311.661 271.274V276.399L311.133 277.238L310.195 278.739L309.36 280.065L307.522 282.998H307.477L282.961 281.736V276.68L283.021 276.615L285.949 273.443L287.008 272.296L288.925 270.222L311.661 271.274Z" fill="#3F3D56"/>
<path opacity="0.1" d="M307.522 277.945V282.998L282.961 281.737V276.68L283.021 276.615L307.522 277.945Z" fill="black"/>
<path opacity="0.15" d="M311.661 271.274V276.399L307.522 282.998V277.945L311.661 271.274Z" fill="black"/>
<path d="M310.199 273.633L310.195 277.075V278.739L310.188 291.758L309.216 293.715L309.36 280.065L309.383 277.975L309.417 274.891L285.949 273.443L287.008 272.296L310.199 273.633Z" fill="#905ECE"/>
<path d="M298.68 273.8L297.036 277.375L297.02 279.195L296.872 297.24L292.924 296.978V277.136L295.031 273.8H298.68Z" fill="#905ECE"/>
<path d="M293.265 274.032C292.315 274.349 291.293 274.384 290.323 274.135C290.134 274.097 289.957 274.015 289.806 273.895C289.646 273.716 289.536 273.497 289.487 273.261C289.316 272.772 289.222 272.259 289.206 271.741C289.201 271.483 289.255 271.226 289.364 270.992C289.473 270.757 289.635 270.551 289.837 270.389C289.922 270.337 290.002 270.277 290.076 270.21C290.164 270.098 290.227 269.969 290.262 269.83C290.547 268.972 291.105 268.068 292.001 267.931C292.825 267.806 293.573 268.383 294.211 268.923L295.604 270.112C295.759 269.696 296.036 269.336 296.399 269.081C296.762 268.825 297.193 268.685 297.637 268.679C298.08 268.672 298.516 268.8 298.885 269.046C299.255 269.292 299.542 269.643 299.708 270.055C300.553 269.102 301.618 268.37 302.81 267.923C302.936 267.858 303.074 267.821 303.215 267.816C303.356 267.811 303.497 267.837 303.627 267.893C303.775 268.004 303.887 268.156 303.949 268.33C304.332 269.165 304.539 270.07 304.557 270.989C304.654 270.955 304.76 270.955 304.857 270.989C304.954 271.023 305.037 271.088 305.092 271.175C305.201 271.351 305.262 271.551 305.271 271.757C305.309 272.076 305.328 272.396 305.328 272.718C305.361 273.058 305.272 273.398 305.077 273.679C304.792 274.013 304.318 274.059 303.862 274.059C303.905 274.113 303.936 274.176 303.953 274.243C303.971 274.31 303.973 274.38 303.961 274.448C303.95 274.516 303.924 274.581 303.885 274.638C303.846 274.696 303.796 274.744 303.737 274.781C303.486 274.913 303.202 274.967 302.921 274.936C301.835 274.936 300.68 274.898 299.777 274.294C299.424 274.055 299.124 273.74 298.767 273.504C297.89 272.923 296.792 272.896 295.779 272.942C294.864 272.991 294.135 273.751 293.265 274.032Z" fill="#905ECE"/>
<path d="M293.056 273.8C293.056 273.8 284.005 275.065 282.744 280.543L284.643 280.262L285.975 282.648C285.975 282.648 287.38 277.33 291.519 276.049C295.657 274.769 297.13 274.575 297.13 274.575C297.13 274.575 300.008 275.278 302.605 283.632L304.079 281.596L306.676 282.158C306.676 282.158 304.777 275.628 299.659 273.8H293.056Z" fill="#905ECE"/>
<path d="M263.741 296.951C263.741 297.692 260.799 296.864 259.743 297.495C259.075 297.875 259.447 300.743 258.437 301.077C257.64 301.339 256.603 301.419 255.628 301.632C254.777 301.818 253.729 301.457 252.772 301.598C251.895 301.727 250.904 301.195 249.951 301.282C249.059 301.362 248.117 300.523 247.168 300.549C246.219 300.576 245.399 300.595 244.457 300.595C243.516 300.595 242.582 302.114 241.682 302.076C240.782 302.038 239.977 299.987 239.089 299.907C238.132 299.82 236.997 301.867 236.123 301.742C235.159 301.601 234.282 301.146 233.431 300.963C232.456 300.75 232.106 298.805 231.309 298.543C230.299 298.213 228.192 300.655 227.512 300.257C226.457 299.626 226.255 297.692 226.255 296.951C226.255 296.211 227.273 295.648 228.332 295.014C228.997 294.634 230.231 295.489 231.233 295.158C232.03 294.892 232.733 294.486 233.712 294.273C234.559 294.087 235.094 291.922 236.055 291.781C236.932 291.656 238.007 292.811 238.96 292.723C239.852 292.643 240.797 293.597 241.743 293.559C242.688 293.521 243.504 291.933 244.446 291.933C245.388 291.933 246.303 292.188 247.206 292.229C248.11 292.271 248.922 293.927 249.815 294.011C250.768 294.095 251.861 292.351 252.734 292.491C253.699 292.632 254.599 292.871 255.445 293.061C256.425 293.274 256.884 294.839 257.685 295.101C258.692 295.432 260.055 294.364 260.723 294.763C261.79 295.379 263.741 296.211 263.741 296.951Z" fill="#EDEDF4"/>
<path d="M288.041 296.951C288.041 297.692 285.098 296.864 284.043 297.495C283.375 297.875 283.747 300.743 282.737 301.077C281.939 301.339 280.903 301.419 279.927 301.632C279.077 301.818 278.029 301.457 277.072 301.598C276.195 301.727 275.204 301.195 274.251 301.282C273.359 301.362 272.417 300.523 271.468 300.549C270.519 300.576 269.698 300.595 268.757 300.595C267.815 300.595 266.881 302.114 265.981 302.076C265.082 302.038 264.277 299.987 263.388 299.907C262.431 299.82 261.296 301.867 260.423 301.742C259.458 301.601 258.581 301.146 257.731 300.963C256.755 300.75 256.406 298.805 255.609 298.543C254.599 298.213 252.491 300.655 251.812 300.257C250.756 299.626 250.555 297.692 250.555 296.951C250.555 296.211 251.573 295.648 252.632 295.014C253.296 294.634 254.53 295.489 255.533 295.158C256.33 294.892 257.032 294.486 258.012 294.273C258.859 294.087 259.394 291.922 260.355 291.781C261.232 291.656 262.306 292.811 263.259 292.723C264.151 292.643 265.097 293.597 266.042 293.559C266.988 293.521 267.804 291.933 268.745 291.933C269.687 291.933 270.602 292.188 271.506 292.229C272.409 292.271 273.222 293.927 274.114 294.011C275.067 294.095 276.161 292.351 277.034 292.491C277.998 292.632 278.898 292.871 279.745 293.061C280.724 293.274 281.184 294.839 281.985 295.101C282.991 295.432 284.354 294.364 285.022 294.763C286.089 295.379 288.041 296.211 288.041 296.951Z" fill="#EDEDF4"/>
<path d="M316.517 294.292C316.517 295.033 313.574 294.205 312.519 294.835C311.851 295.215 312.223 298.083 311.213 298.418C310.415 298.68 309.379 298.76 308.403 298.972C307.553 299.159 306.505 298.798 305.548 298.938C304.671 299.067 303.68 298.535 302.727 298.623C301.835 298.703 300.893 297.863 299.944 297.89C298.995 297.916 298.175 297.935 297.233 297.935C296.291 297.935 295.357 299.455 294.457 299.417C293.558 299.379 292.753 297.327 291.864 297.248C290.907 297.16 289.772 299.208 288.899 299.083C287.935 298.942 287.057 298.486 286.207 298.304C285.231 298.091 284.882 296.146 284.085 295.884C283.075 295.553 280.967 297.996 280.288 297.597C279.232 296.967 279.031 295.033 279.031 294.292C279.031 293.551 280.049 292.989 281.108 292.355C281.772 291.975 283.006 292.829 284.009 292.499C284.806 292.233 285.508 291.826 286.488 291.614C287.335 291.428 287.87 289.262 288.831 289.122C289.708 288.996 290.782 290.151 291.735 290.064C292.627 289.984 293.573 290.938 294.518 290.9C295.464 290.862 296.28 289.274 297.222 289.274C298.163 289.274 299.078 289.528 299.982 289.57C300.885 289.612 301.698 291.268 302.59 291.352C303.543 291.435 304.637 289.691 305.51 289.832C306.474 289.973 307.374 290.212 308.221 290.402C309.2 290.615 309.66 292.18 310.461 292.442C311.467 292.772 312.83 291.705 313.498 292.104C314.565 292.719 316.517 293.551 316.517 294.292Z" fill="#EDEDF4"/>
</g>
<defs>
<clipPath id="clip0_109_55">
<rect width="435" height="311" fill="white"/>
</clipPath>
</defs>
</svg>
