<svg width="225" height="225" viewBox="0 0 225 225" fill="none" xmlns="http://www.w3.org/2000/svg">
<path d="M98.4094 35.1562C98.4094 44.4803 94.7054 53.4224 88.1124 60.0155C81.5193 66.6086 72.5771 70.3125 63.2531 70.3125C53.9291 70.3125 44.987 66.6086 38.3939 60.0155C31.8008 53.4224 28.0969 44.4803 28.0969 35.1562C28.0969 25.8322 31.8008 16.8901 38.3939 10.297C44.987 3.70395 53.9291 0 63.2531 0C72.5771 0 81.5193 3.70395 88.1124 10.297C94.7054 16.8901 98.4094 25.8322 98.4094 35.1562ZM157.823 92.1516C156.505 91.491 155.012 91.2618 153.555 91.4965C152.099 91.7312 150.754 92.4179 149.709 93.4594L97.5375 159.694L60.1312 120.712C58.7807 119.813 57.1607 119.409 55.546 119.568C53.9313 119.727 52.4212 120.439 51.2719 121.584L0 182.812V210.938C0 214.667 1.48158 218.244 4.11881 220.881C6.75604 223.518 10.3329 225 14.0625 225H210.938C212.784 225 214.613 224.636 216.319 223.93C218.025 223.223 219.575 222.187 220.881 220.881C222.187 219.575 223.223 218.025 223.93 216.319C224.636 214.613 225 212.784 225 210.938V147.656L157.823 92.1516Z" fill="#905ECE"/>
</svg>
