<svg width="541" height="295" viewBox="0 0 541 295" fill="none" xmlns="http://www.w3.org/2000/svg">
<path d="M72.7499 153.759H55.4362C54.8274 153.759 54.2436 154 53.8131 154.43C53.3826 154.859 53.1408 155.441 53.1408 156.048V163.628C53.1408 164.235 53.3826 164.818 53.8131 165.247C54.2436 165.676 54.8274 165.917 55.4362 165.917H58.3054V177.274H69.8808V165.917H72.7499C73.3587 165.917 73.9426 165.676 74.3731 165.247C74.8036 164.818 75.0454 164.235 75.0454 163.628V156.048C75.0454 155.441 74.8036 154.859 74.3731 154.43C73.9426 154 73.3587 153.759 72.7499 153.759Z" fill="#905ECE"/>
<path d="M90.0915 223.127C79.488 207.652 74.0673 189.227 74.606 170.491C74.6156 170.059 74.4749 169.636 74.2078 169.296C73.9407 168.955 73.5636 168.717 73.1406 168.622V165.347H54.855V168.577H54.6031C54.3452 168.577 54.0901 168.631 53.8538 168.734C53.6175 168.837 53.4051 168.987 53.2297 169.176C53.0543 169.365 52.9199 169.587 52.8346 169.83C52.7494 170.073 52.7153 170.33 52.7344 170.587C54.175 190.615 49.3105 208.576 38.1411 224.47C37.4983 225.384 37.17 226.48 37.2053 227.596L39.2047 289.282C39.2527 290.657 39.8317 291.962 40.8208 292.922C41.8099 293.882 43.1326 294.424 44.5129 294.435H85.8722C87.2683 294.424 88.6047 293.87 89.5969 292.89C90.589 291.91 91.1584 290.583 91.1837 289.191L91.9542 229.299C91.977 227.1 91.3272 224.947 90.0915 223.127Z" fill="#3F3D56"/>
<path opacity="0.2" d="M69.1407 156.229C69.1407 157.539 68.6189 158.795 67.6902 159.721C66.7614 160.647 65.5018 161.168 64.1883 161.168C62.8749 161.168 61.6152 160.647 60.6865 159.721C59.7577 158.795 59.236 157.539 59.236 156.229" fill="black"/>
<path d="M83.5442 243.617H78.536C78.0578 240.523 76.485 237.701 74.1022 235.663C71.7193 233.624 68.6837 232.504 65.5444 232.504C62.4051 232.504 59.3695 233.624 56.9866 235.663C54.6037 237.701 53.031 240.523 52.5528 243.617H47.5442C47.0113 243.617 46.4847 243.732 46.0005 243.954C45.5164 244.176 45.086 244.5 44.739 244.903C44.3921 245.307 44.1366 245.78 43.9903 246.291C43.8439 246.802 43.8101 247.339 43.8912 247.864L49.3313 283.132H80.5692L87.177 247.983C87.2771 247.451 87.2583 246.903 87.122 246.378C86.9857 245.854 86.7352 245.366 86.3884 244.949C86.0416 244.533 85.6069 244.197 85.1153 243.967C84.6237 243.737 84.0873 243.617 83.5442 243.617Z" fill="#905ECE"/>
<path d="M504.417 186.929L503.215 234.819L501.728 294.205H451.086L449.342 224.627L448.396 186.929H504.417Z" fill="#E6E6E6"/>
<path d="M479.768 161.451H472.597V256.212H479.768V161.451Z" fill="#905ECE"/>
<path d="M500.831 223.014L499.475 291.081H453.315L451.726 211.333C455.885 210.168 460.24 209.87 464.519 210.457C468.798 211.044 472.91 212.503 476.599 214.745C484.312 219.294 492.976 221.743 500.831 223.014Z" fill="#3F3D56"/>
<path d="M464.743 230.677H458.163V237.239H464.743V230.677Z" fill="#E6E6E6"/>
<path d="M469.224 217.267H462.645V223.829H469.224V217.267Z" fill="#E6E6E6"/>
<path d="M483.353 226.55L478.068 222.641L474.149 227.912L479.433 231.821L483.353 226.55Z" fill="#E6E6E6"/>
<path d="M495.241 238.178L489.956 234.269L486.036 239.54L491.321 243.449L495.241 238.178Z" fill="#E6E6E6"/>
<path d="M475.074 244.883L469.789 240.973L465.869 246.244L471.154 250.154L475.074 244.883Z" fill="#E6E6E6"/>
<path d="M490.524 214.642C491.266 214.642 491.868 214.042 491.868 213.301C491.868 212.561 491.266 211.96 490.524 211.96C489.781 211.96 489.179 212.561 489.179 213.301C489.179 214.042 489.781 214.642 490.524 214.642Z" fill="#3F3D56"/>
<path d="M463.186 205.702C463.928 205.702 464.53 205.102 464.53 204.361C464.53 203.621 463.928 203.021 463.186 203.021C462.443 203.021 461.841 203.621 461.841 204.361C461.841 205.102 462.443 205.702 463.186 205.702Z" fill="#3F3D56"/>
<path d="M486.042 196.316C486.784 196.316 487.386 195.715 487.386 194.975C487.386 194.234 486.784 193.634 486.042 193.634C485.299 193.634 484.697 194.234 484.697 194.975C484.697 195.715 485.299 196.316 486.042 196.316Z" fill="#3F3D56"/>
<path d="M270.81 293.796C352.153 293.796 418.094 228.028 418.094 146.898C418.094 65.7685 352.153 0 270.81 0C189.466 0 123.525 65.7685 123.525 146.898C123.525 228.028 189.466 293.796 270.81 293.796Z" fill="#905ECE"/>
<path opacity="0.2" d="M270.81 254.12C245.938 254.119 221.836 245.518 202.611 229.781C183.385 214.044 170.225 192.145 165.373 167.816C160.521 143.487 164.277 118.232 176.001 96.3549C187.726 74.4779 206.693 57.3324 229.671 47.8396C252.649 38.3468 278.217 37.0941 302.017 44.295C325.817 51.4958 346.378 66.7048 360.196 87.3303C374.014 107.956 380.233 132.722 377.796 157.408C375.358 182.095 364.413 205.175 346.826 222.715C336.867 232.703 325.02 240.621 311.972 246.012C298.924 251.402 284.933 254.158 270.81 254.12ZM270.81 46.2894C215.188 46.2894 169.936 91.4222 169.936 146.898C169.936 202.374 215.188 247.507 270.81 247.507C326.431 247.507 371.683 202.374 371.683 146.898C371.683 91.4222 326.431 46.2894 270.81 46.2894Z" fill="black"/>
<path d="M270.81 250.813C328.351 250.813 374.998 204.289 374.998 146.898C374.998 89.5075 328.351 42.9832 270.81 42.9832C213.268 42.9832 166.621 89.5075 166.621 146.898C166.621 204.289 213.268 250.813 270.81 250.813Z" fill="#3F3D56"/>
<path d="M193.327 105.347C192.537 103.803 192.059 102.12 191.922 100.392C191.785 98.6643 191.99 96.9266 192.526 95.2782C193.063 93.6298 193.92 92.103 195.048 90.7851C196.177 89.4673 197.555 88.3841 199.103 87.5977C200.651 86.8112 202.34 86.3369 204.072 86.2018C205.805 86.0666 207.547 86.2734 209.199 86.8102C210.851 87.3469 212.381 88.2032 213.701 89.3301C215.021 90.457 216.106 91.8323 216.893 93.3774L246.329 151.029C247.119 152.572 247.596 154.256 247.733 155.984C247.871 157.711 247.665 159.449 247.129 161.097C246.592 162.746 245.736 164.273 244.607 165.59C243.479 166.908 242.101 167.991 240.552 168.778C239.004 169.564 237.315 170.039 235.583 170.174C233.851 170.309 232.109 170.102 230.456 169.565C228.804 169.029 227.274 168.172 225.954 167.045C224.634 165.919 223.55 164.543 222.763 162.998L193.327 105.347Z" fill="#FF6584"/>
<path opacity="0.2" d="M196.61 111.777L195.251 109.116C202.032 103.862 209.994 99.9975 218.817 97.147L220.176 99.8078C210.626 101.791 202.501 105.462 196.61 111.777Z" fill="black"/>
<path opacity="0.2" d="M202.95 124.194L201.591 121.534C208.372 116.279 216.334 112.415 225.157 109.564L226.516 112.225C216.966 114.209 208.841 117.879 202.95 124.194Z" fill="black"/>
<path opacity="0.2" d="M209.29 136.612L207.931 133.951C214.712 128.696 222.674 124.832 231.497 121.981L232.856 124.642C223.306 126.626 215.181 130.296 209.29 136.612Z" fill="black"/>
<path opacity="0.2" d="M215.63 149.029L214.272 146.368C221.052 141.114 229.014 137.249 237.837 134.399L239.196 137.06C229.646 139.043 221.521 142.714 215.63 149.029Z" fill="black"/>
<path opacity="0.2" d="M221.97 161.446L220.612 158.785C227.392 153.531 235.354 149.666 244.178 146.816L245.536 149.477C235.986 151.46 227.861 155.131 221.97 161.446Z" fill="black"/>
<path d="M171.243 126.93C170.453 125.386 169.976 123.702 169.839 121.975C169.702 120.247 169.907 118.51 170.444 116.862C170.98 115.213 171.837 113.687 172.965 112.369C174.094 111.051 175.472 109.968 177.02 109.182C178.568 108.395 180.257 107.921 181.989 107.786C183.721 107.651 185.463 107.857 187.115 108.394C188.767 108.931 190.297 109.787 191.617 110.913C192.937 112.04 194.022 113.415 194.809 114.96L224.245 172.612C225.832 175.728 226.114 179.345 225.028 182.669C223.943 185.992 221.579 188.75 218.456 190.336C215.333 191.922 211.707 192.207 208.373 191.128C205.04 190.049 202.273 187.694 200.679 184.581L171.243 126.93Z" fill="#FF6584"/>
<path opacity="0.2" d="M174.526 133.36L173.168 130.699C179.948 125.444 187.91 121.58 196.734 118.729L198.092 121.39C188.542 123.374 180.417 127.044 174.526 133.36Z" fill="black"/>
<path opacity="0.2" d="M180.866 145.777L179.508 143.116C186.288 137.862 194.25 133.997 203.074 131.147L204.432 133.808C194.882 135.791 186.757 139.462 180.866 145.777Z" fill="black"/>
<path opacity="0.2" d="M187.206 158.194L185.848 155.533C192.628 150.279 200.59 146.414 209.414 143.564L210.772 146.225C201.222 148.208 193.097 151.879 187.206 158.194Z" fill="black"/>
<path opacity="0.2" d="M193.546 170.611L192.188 167.951C198.968 162.696 206.93 158.832 215.754 155.981L217.112 158.642C207.562 160.626 199.437 164.296 193.546 170.611Z" fill="black"/>
<path opacity="0.2" d="M199.886 183.029L198.528 180.368C205.308 175.113 213.27 171.249 222.094 168.398L223.452 171.059C213.902 173.043 205.777 176.713 199.886 183.029Z" fill="black"/>
<path d="M340.426 150.205L340.519 150.205C343.69 150.231 346.795 149.304 349.429 147.544C352.063 145.784 354.105 143.273 355.287 140.339C357.718 134.21 358.943 127.672 358.895 121.081C358.73 93.1836 335.975 70.2974 308.006 69.9115C296.095 69.7452 284.493 73.6921 275.166 81.083C265.84 88.4739 259.362 98.8542 256.833 110.464C254.303 122.074 255.876 134.199 261.286 144.785C266.695 155.37 275.609 163.763 286.514 168.543C289.397 169.816 292.597 170.19 295.696 169.617C298.795 169.044 301.648 167.55 303.881 165.331C308.67 160.529 314.365 156.72 320.638 154.124C326.91 151.528 333.635 150.196 340.426 150.205Z" fill="#E6E6E6"/>
<path d="M313.906 134.617C323.322 134.617 330.955 127.004 330.955 117.613C330.955 108.222 323.322 100.609 313.906 100.609C304.49 100.609 296.857 108.222 296.857 117.613C296.857 127.004 304.49 134.617 313.906 134.617Z" fill="#F9A825"/>
<path d="M276.852 115.701C277.961 115.701 278.86 114.804 278.86 113.698C278.86 112.591 277.961 111.695 276.852 111.695C275.743 111.695 274.844 112.591 274.844 113.698C274.844 114.804 275.743 115.701 276.852 115.701Z" fill="#3F3D56"/>
<path d="M210.55 117.59C211.659 117.59 212.559 116.693 212.559 115.587C212.559 114.481 211.659 113.584 210.55 113.584C209.441 113.584 208.542 114.481 208.542 115.587C208.542 116.693 209.441 117.59 210.55 117.59Z" fill="#3F3D56"/>
<path d="M287.556 94.9407C288.665 94.9407 289.565 94.0438 289.565 92.9375C289.565 91.8312 288.665 90.9343 287.556 90.9343C286.447 90.9343 285.548 91.8312 285.548 92.9375C285.548 94.0438 286.447 94.9407 287.556 94.9407Z" fill="#3F3D56"/>
<path d="M287.499 152.68C288.608 152.68 289.508 151.783 289.508 150.677C289.508 149.571 288.608 148.674 287.499 148.674C286.39 148.674 285.491 149.571 285.491 150.677C285.491 151.783 286.39 152.68 287.499 152.68Z" fill="#3F3D56"/>
<path d="M327.28 90.8032C328.389 90.8032 329.289 89.9064 329.289 88.8001C329.289 87.6937 328.389 86.7969 327.28 86.7969C326.171 86.7969 325.272 87.6937 325.272 88.8001C325.272 89.9064 326.171 90.8032 327.28 90.8032Z" fill="#3F3D56"/>
<path d="M197.518 145.595C198.627 145.595 199.527 144.698 199.527 143.592C199.527 142.485 198.627 141.589 197.518 141.589C196.409 141.589 195.51 142.485 195.51 143.592C195.51 144.698 196.409 145.595 197.518 145.595Z" fill="#3F3D56"/>
<path d="M212.199 174.408C213.308 174.408 214.208 173.511 214.208 172.405C214.208 171.298 213.308 170.401 212.199 170.401C211.09 170.401 210.191 171.298 210.191 172.405C210.191 173.511 211.09 174.408 212.199 174.408Z" fill="#3F3D56"/>
<path d="M304.434 183.741C308.619 183.741 312.011 180.357 312.011 176.183C312.011 172.009 308.619 168.626 304.434 168.626C300.249 168.626 296.857 172.009 296.857 176.183C296.857 180.357 300.249 183.741 304.434 183.741Z" fill="#FF6584"/>
<path opacity="0.2" d="M310.117 176.656C310.117 178.159 309.518 179.601 308.453 180.664C307.387 181.727 305.941 182.324 304.434 182.324C302.927 182.324 301.481 181.727 300.416 180.664C299.35 179.601 298.751 178.159 298.751 176.656" fill="black"/>
<path opacity="0.2" d="M298.751 175.711C298.751 174.208 299.35 172.766 300.416 171.703C301.481 170.64 302.927 170.043 304.434 170.043C305.941 170.043 307.387 170.64 308.453 171.703C309.518 172.766 310.117 174.208 310.117 175.711" fill="black"/>
<path d="M301.593 174.294C301.854 174.294 302.066 173.977 302.066 173.585C302.066 173.194 301.854 172.877 301.593 172.877C301.331 172.877 301.119 173.194 301.119 173.585C301.119 173.977 301.331 174.294 301.593 174.294Z" fill="#FF6584"/>
<path d="M304.434 173.349C304.696 173.349 304.908 173.032 304.908 172.641C304.908 172.249 304.696 171.932 304.434 171.932C304.173 171.932 303.96 172.249 303.96 172.641C303.96 173.032 304.173 173.349 304.434 173.349Z" fill="#FF6584"/>
<path d="M304.434 179.49C304.696 179.49 304.908 179.173 304.908 178.781C304.908 178.39 304.696 178.073 304.434 178.073C304.173 178.073 303.96 178.39 303.96 178.781C303.96 179.173 304.173 179.49 304.434 179.49Z" fill="#FF6584"/>
<path d="M307.276 175.711C307.537 175.711 307.749 175.394 307.749 175.002C307.749 174.611 307.537 174.294 307.276 174.294C307.014 174.294 306.802 174.611 306.802 175.002C306.802 175.394 307.014 175.711 307.276 175.711Z" fill="#FF6584"/>
<path d="M306.802 180.907C307.064 180.907 307.276 180.59 307.276 180.198C307.276 179.807 307.064 179.49 306.802 179.49C306.54 179.49 306.328 179.807 306.328 180.198C306.328 180.59 306.54 180.907 306.802 180.907Z" fill="#FF6584"/>
<path d="M301.119 178.545C301.38 178.545 301.593 178.228 301.593 177.836C301.593 177.445 301.38 177.128 301.119 177.128C300.857 177.128 300.645 177.445 300.645 177.836C300.645 178.228 300.857 178.545 301.119 178.545Z" fill="#FF6584"/>
<path d="M319.589 163.43C323.774 163.43 327.166 160.047 327.166 155.873C327.166 151.699 323.774 148.315 319.589 148.315C315.404 148.315 312.011 151.699 312.011 155.873C312.011 160.047 315.404 163.43 319.589 163.43Z" fill="#FF6584"/>
<path opacity="0.2" d="M325.272 156.345C325.272 157.848 324.673 159.29 323.607 160.353C322.541 161.416 321.096 162.013 319.589 162.013C318.082 162.013 316.636 161.416 315.57 160.353C314.504 159.29 313.906 157.848 313.906 156.345" fill="black"/>
<path opacity="0.2" d="M313.906 155.4C313.906 153.897 314.504 152.455 315.57 151.392C316.636 150.329 318.082 149.732 319.589 149.732C321.096 149.732 322.541 150.329 323.607 151.392C324.673 152.455 325.272 153.897 325.272 155.4" fill="black"/>
<path d="M316.747 153.983C317.009 153.983 317.221 153.666 317.221 153.275C317.221 152.883 317.009 152.566 316.747 152.566C316.486 152.566 316.274 152.883 316.274 153.275C316.274 153.666 316.486 153.983 316.747 153.983Z" fill="#FF6584"/>
<path d="M319.589 153.039C319.85 153.039 320.062 152.721 320.062 152.33C320.062 151.939 319.85 151.622 319.589 151.622C319.327 151.622 319.115 151.939 319.115 152.33C319.115 152.721 319.327 153.039 319.589 153.039Z" fill="#FF6584"/>
<path d="M319.589 159.179C319.85 159.179 320.062 158.862 320.062 158.47C320.062 158.079 319.85 157.762 319.589 157.762C319.327 157.762 319.115 158.079 319.115 158.47C319.115 158.862 319.327 159.179 319.589 159.179Z" fill="#FF6584"/>
<path d="M322.43 155.4C322.692 155.4 322.904 155.083 322.904 154.692C322.904 154.301 322.692 153.983 322.43 153.983C322.169 153.983 321.957 154.301 321.957 154.692C321.957 155.083 322.169 155.4 322.43 155.4Z" fill="#FF6584"/>
<path d="M321.957 160.596C322.218 160.596 322.43 160.279 322.43 159.887C322.43 159.496 322.218 159.179 321.957 159.179C321.695 159.179 321.483 159.496 321.483 159.887C321.483 160.279 321.695 160.596 321.957 160.596Z" fill="#FF6584"/>
<path d="M316.274 158.234C316.535 158.234 316.747 157.917 316.747 157.526C316.747 157.135 316.535 156.817 316.274 156.817C316.012 156.817 315.8 157.135 315.8 157.526C315.8 157.917 316.012 158.234 316.274 158.234Z" fill="#FF6584"/>
<path d="M334.743 173.822C338.928 173.822 342.321 170.438 342.321 166.264C342.321 162.09 338.928 158.707 334.743 158.707C330.559 158.707 327.166 162.09 327.166 166.264C327.166 170.438 330.559 173.822 334.743 173.822Z" fill="#905ECE"/>
<path opacity="0.2" d="M340.426 166.737C340.426 168.24 339.828 169.682 338.762 170.745C337.696 171.808 336.251 172.405 334.743 172.405C333.236 172.405 331.791 171.808 330.725 170.745C329.659 169.682 329.06 168.24 329.06 166.737" fill="black"/>
<path opacity="0.2" d="M329.06 165.792C329.06 164.289 329.659 162.847 330.725 161.784C331.791 160.721 333.236 160.124 334.743 160.124C336.251 160.124 337.696 160.721 338.762 161.784C339.828 162.847 340.426 164.289 340.426 165.792" fill="black"/>
<path d="M331.902 164.375C332.164 164.375 332.376 164.058 332.376 163.666C332.376 163.275 332.164 162.958 331.902 162.958C331.64 162.958 331.428 163.275 331.428 163.666C331.428 164.058 331.64 164.375 331.902 164.375Z" fill="#905ECE"/>
<path d="M334.743 163.43C335.005 163.43 335.217 163.113 335.217 162.722C335.217 162.33 335.005 162.013 334.743 162.013C334.482 162.013 334.27 162.33 334.27 162.722C334.27 163.113 334.482 163.43 334.743 163.43Z" fill="#905ECE"/>
<path d="M334.743 169.571C335.005 169.571 335.217 169.253 335.217 168.862C335.217 168.471 335.005 168.154 334.743 168.154C334.482 168.154 334.27 168.471 334.27 168.862C334.27 169.253 334.482 169.571 334.743 169.571Z" fill="#905ECE"/>
<path d="M337.585 165.792C337.847 165.792 338.059 165.475 338.059 165.083C338.059 164.692 337.847 164.375 337.585 164.375C337.323 164.375 337.111 164.692 337.111 165.083C337.111 165.475 337.323 165.792 337.585 165.792Z" fill="#905ECE"/>
<path d="M337.111 170.988C337.373 170.988 337.585 170.67 337.585 170.279C337.585 169.888 337.373 169.571 337.111 169.571C336.85 169.571 336.638 169.888 336.638 170.279C336.638 170.67 336.85 170.988 337.111 170.988Z" fill="#905ECE"/>
<path d="M331.428 168.626C331.69 168.626 331.902 168.309 331.902 167.917C331.902 167.526 331.69 167.209 331.428 167.209C331.167 167.209 330.955 167.526 330.955 167.917C330.955 168.309 331.167 168.626 331.428 168.626Z" fill="#905ECE"/>
<path d="M296.857 174.766C301.042 174.766 304.434 171.383 304.434 167.209C304.434 163.035 301.042 159.651 296.857 159.651C292.672 159.651 289.279 163.035 289.279 167.209C289.279 171.383 292.672 174.766 296.857 174.766Z" fill="#905ECE"/>
<path opacity="0.2" d="M302.54 167.681C302.54 169.184 301.941 170.626 300.875 171.689C299.809 172.752 298.364 173.349 296.857 173.349C295.349 173.349 293.904 172.752 292.838 171.689C291.772 170.626 291.174 169.184 291.174 167.681" fill="black"/>
<path opacity="0.2" d="M291.174 166.736C291.174 165.233 291.772 163.791 292.838 162.729C293.904 161.666 295.349 161.068 296.857 161.068C298.364 161.068 299.809 161.666 300.875 162.729C301.941 163.791 302.54 165.233 302.54 166.736" fill="black"/>
<path d="M294.015 165.319C294.277 165.319 294.489 165.002 294.489 164.611C294.489 164.22 294.277 163.902 294.015 163.902C293.754 163.902 293.542 164.22 293.542 164.611C293.542 165.002 293.754 165.319 294.015 165.319Z" fill="#905ECE"/>
<path d="M296.857 164.375C297.118 164.375 297.33 164.058 297.33 163.666C297.33 163.275 297.118 162.958 296.857 162.958C296.595 162.958 296.383 163.275 296.383 163.666C296.383 164.058 296.595 164.375 296.857 164.375Z" fill="#905ECE"/>
<path d="M296.857 170.515C297.118 170.515 297.33 170.198 297.33 169.807C297.33 169.415 297.118 169.098 296.857 169.098C296.595 169.098 296.383 169.415 296.383 169.807C296.383 170.198 296.595 170.515 296.857 170.515Z" fill="#905ECE"/>
<path d="M299.698 166.736C299.96 166.736 300.172 166.419 300.172 166.028C300.172 165.637 299.96 165.319 299.698 165.319C299.437 165.319 299.225 165.637 299.225 166.028C299.225 166.419 299.437 166.736 299.698 166.736Z" fill="#905ECE"/>
<path d="M299.225 171.932C299.486 171.932 299.698 171.615 299.698 171.224C299.698 170.832 299.486 170.515 299.225 170.515C298.963 170.515 298.751 170.832 298.751 171.224C298.751 171.615 298.963 171.932 299.225 171.932Z" fill="#905ECE"/>
<path d="M293.542 169.571C293.803 169.571 294.015 169.253 294.015 168.862C294.015 168.471 293.803 168.154 293.542 168.154C293.28 168.154 293.068 168.471 293.068 168.862C293.068 169.253 293.28 169.571 293.542 169.571Z" fill="#905ECE"/>
<path d="M313.906 178.073C318.091 178.073 321.483 174.689 321.483 170.515C321.483 166.341 318.091 162.958 313.906 162.958C309.721 162.958 306.328 166.341 306.328 170.515C306.328 174.689 309.721 178.073 313.906 178.073Z" fill="#905ECE"/>
<path opacity="0.2" d="M319.589 170.988C319.589 171.732 319.442 172.469 319.156 173.157C318.871 173.844 318.452 174.469 317.924 174.995C317.397 175.522 316.77 175.939 316.081 176.224C315.391 176.509 314.652 176.656 313.906 176.656C313.159 176.656 312.42 176.509 311.731 176.224C311.041 175.939 310.415 175.522 309.887 174.995C309.36 174.469 308.941 173.844 308.655 173.157C308.37 172.469 308.223 171.732 308.223 170.988" fill="black"/>
<path opacity="0.2" d="M308.223 170.043C308.223 169.299 308.37 168.561 308.655 167.874C308.941 167.186 309.36 166.561 309.887 166.035C310.415 165.509 311.041 165.091 311.731 164.806C312.42 164.521 313.159 164.375 313.906 164.375C314.652 164.375 315.391 164.521 316.081 164.806C316.77 165.091 317.397 165.509 317.924 166.035C318.452 166.561 318.871 167.186 319.156 167.874C319.442 168.561 319.589 169.299 319.589 170.043" fill="black"/>
<path d="M311.064 168.626C311.326 168.626 311.538 168.309 311.538 167.917C311.538 167.526 311.326 167.209 311.064 167.209C310.803 167.209 310.591 167.526 310.591 167.917C310.591 168.309 310.803 168.626 311.064 168.626Z" fill="#905ECE"/>
<path d="M313.906 167.681C314.167 167.681 314.379 167.364 314.379 166.973C314.379 166.581 314.167 166.264 313.906 166.264C313.644 166.264 313.432 166.581 313.432 166.973C313.432 167.364 313.644 167.681 313.906 167.681Z" fill="#905ECE"/>
<path d="M313.906 173.822C314.167 173.822 314.379 173.504 314.379 173.113C314.379 172.722 314.167 172.405 313.906 172.405C313.644 172.405 313.432 172.722 313.432 173.113C313.432 173.504 313.644 173.822 313.906 173.822Z" fill="#905ECE"/>
<path d="M316.747 170.043C317.009 170.043 317.221 169.726 317.221 169.334C317.221 168.943 317.009 168.626 316.747 168.626C316.486 168.626 316.274 168.943 316.274 169.334C316.274 169.726 316.486 170.043 316.747 170.043Z" fill="#905ECE"/>
<path d="M316.274 175.239C316.535 175.239 316.747 174.921 316.747 174.53C316.747 174.139 316.535 173.822 316.274 173.822C316.012 173.822 315.8 174.139 315.8 174.53C315.8 174.921 316.012 175.239 316.274 175.239Z" fill="#905ECE"/>
<path d="M310.591 172.877C310.852 172.877 311.064 172.56 311.064 172.168C311.064 171.777 310.852 171.46 310.591 171.46C310.329 171.46 310.117 171.777 310.117 172.168C310.117 172.56 310.329 172.877 310.591 172.877Z" fill="#905ECE"/>
<path d="M325.745 186.102C329.93 186.102 333.323 182.719 333.323 178.545C333.323 174.371 329.93 170.988 325.745 170.988C321.56 170.988 318.168 174.371 318.168 178.545C318.168 182.719 321.56 186.102 325.745 186.102Z" fill="#FF6584"/>
<path opacity="0.2" d="M331.428 179.017C331.428 180.521 330.83 181.962 329.764 183.025C328.698 184.088 327.253 184.685 325.745 184.685C324.238 184.685 322.793 184.088 321.727 183.025C320.661 181.962 320.062 180.521 320.062 179.017" fill="black"/>
<path opacity="0.2" d="M320.062 178.073C320.062 176.569 320.661 175.128 321.727 174.065C322.793 173.002 324.238 172.405 325.745 172.405C327.253 172.405 328.698 173.002 329.764 174.065C330.83 175.128 331.428 176.569 331.428 178.073" fill="black"/>
<path d="M322.904 176.656C323.165 176.656 323.377 176.338 323.377 175.947C323.377 175.556 323.165 175.239 322.904 175.239C322.642 175.239 322.43 175.556 322.43 175.947C322.43 176.338 322.642 176.656 322.904 176.656Z" fill="#FF6584"/>
<path d="M325.745 175.711C326.007 175.711 326.219 175.394 326.219 175.002C326.219 174.611 326.007 174.294 325.745 174.294C325.484 174.294 325.272 174.611 325.272 175.002C325.272 175.394 325.484 175.711 325.745 175.711Z" fill="#FF6584"/>
<path d="M325.745 181.851C326.007 181.851 326.219 181.534 326.219 181.143C326.219 180.752 326.007 180.434 325.745 180.434C325.484 180.434 325.272 180.752 325.272 181.143C325.272 181.534 325.484 181.851 325.745 181.851Z" fill="#FF6584"/>
<path d="M328.587 178.073C328.848 178.073 329.06 177.756 329.06 177.364C329.06 176.973 328.848 176.656 328.587 176.656C328.325 176.656 328.113 176.973 328.113 177.364C328.113 177.756 328.325 178.073 328.587 178.073Z" fill="#FF6584"/>
<path d="M328.113 183.268C328.375 183.268 328.587 182.951 328.587 182.56C328.587 182.169 328.375 181.851 328.113 181.851C327.852 181.851 327.64 182.169 327.64 182.56C327.64 182.951 327.852 183.268 328.113 183.268Z" fill="#FF6584"/>
<path d="M322.43 180.907C322.692 180.907 322.904 180.59 322.904 180.198C322.904 179.807 322.692 179.49 322.43 179.49C322.169 179.49 321.957 179.807 321.957 180.198C321.957 180.59 322.169 180.907 322.43 180.907Z" fill="#FF6584"/>
<path d="M228.301 151.735C229.41 151.735 230.309 150.839 230.309 149.732C230.309 148.626 229.41 147.729 228.301 147.729C227.192 147.729 226.293 148.626 226.293 149.732C226.293 150.839 227.192 151.735 228.301 151.735Z" fill="#3F3D56"/>
<path d="M282.895 222.443L234.659 209.101L236.507 202.255L284.743 215.598L282.895 222.443Z" fill="#F9A825"/>
<path d="M275.824 220.155C259.305 223.309 242.337 223.309 225.819 220.155V213.059C242.374 215.796 259.268 215.796 275.824 213.059V220.155Z" fill="#F9A825"/>
<path d="M280.964 198.867C264.446 202.021 247.478 202.021 230.96 198.867V191.771C247.515 194.507 264.409 194.507 280.964 191.771V198.867Z" fill="#F9A825"/>
<path d="M298.255 207.382C281.737 210.536 264.769 210.536 248.251 207.382V200.286C264.806 203.023 281.7 203.023 298.255 200.286V207.382Z" fill="#F9A825"/>
<path d="M302.461 215.424C285.943 218.578 268.975 218.578 252.457 215.424V208.328C269.012 211.065 285.906 211.065 302.461 208.328V215.424Z" fill="#F9A825"/>
<path d="M317.125 225.933L267.791 234.198L266.647 227.197L315.981 218.932L317.125 225.933Z" fill="#F9A825"/>
<path d="M309.756 226.843C296.078 236.676 280.663 243.847 264.319 247.979L261.392 241.531C277.593 237.007 292.942 229.867 306.829 220.395L309.756 226.843Z" fill="#F9A825"/>
<path d="M305.646 205.326C291.968 215.16 276.553 222.331 260.209 226.463L257.282 220.015C273.483 215.49 288.832 208.35 302.719 198.878L305.646 205.326Z" fill="#F9A825"/>
<path d="M324.87 205.755C311.193 215.589 295.777 222.759 279.433 226.891L276.506 220.443C292.707 215.919 308.056 208.779 321.943 199.307L324.87 205.755Z" fill="#F9A825"/>
<path d="M332.009 211.285C318.332 221.118 302.916 228.289 286.573 232.421L283.645 225.973C299.846 221.449 315.195 214.309 329.082 204.837L332.009 211.285Z" fill="#F9A825"/>
<path d="M272.23 197.439H269.862V199.8H272.23V197.439Z" fill="#00BF71"/>
<path d="M279.334 238.532H276.966V240.894H279.334V238.532Z" fill="#00BF71"/>
<path d="M241.447 197.439H239.079V199.8H241.447V197.439Z" fill="#00BF71"/>
<path d="M296.383 226.724H294.015V229.086H296.383V226.724Z" fill="#00BF71"/>
<path d="M297.804 213.026H295.436V215.388H297.804V213.026Z" fill="#00BF71"/>
<path d="M258.742 206.559L255.999 204.703L254.935 206.267L257.679 208.123L258.742 206.559Z" fill="#00BF71"/>
<path d="M286.684 211.755L283.94 209.899L282.877 211.462L285.62 213.319L286.684 211.755Z" fill="#00BF71"/>
<path d="M252.586 220.73L249.842 218.874L248.779 220.437L251.522 222.293L252.586 220.73Z" fill="#00BF71"/>
<path d="M269.952 220.592L271.814 217.856L270.246 216.796L268.385 219.532L269.952 220.592Z" fill="#00BF71"/>
<path d="M282.739 223.899L284.6 221.163L283.033 220.102L281.172 222.838L282.739 223.899Z" fill="#00BF71"/>
<path d="M316.84 212.562L318.702 209.826L317.134 208.765L315.273 211.501L316.84 212.562Z" fill="#00BF71"/>
<path d="M541 293.638H0V295H541V293.638Z" fill="#3F3D56"/>
</svg>
